<svg width="64" height="64" viewBox="0 0 64 64" fill="none" xmlns="http://www.w3.org/2000/svg">
<g clip-path="url(#clip0)">
<path d="M37.886 37.3501H26.121C25.1364 37.3501 24.3384 38.1482 24.3384 39.1327V62.2172C24.3384 63.2017 25.1364 63.9998 26.121 63.9998H37.886C38.8705 63.9998 39.6686 63.2017 39.6686 62.2172V39.1327C39.6686 38.1482 38.8705 37.3501 37.886 37.3501ZM36.1034 60.4346H27.9036V40.9153H36.1034V60.4346Z" fill="#335EEA"/>
<path d="M61.2384 23.3569H49.3842C48.3996 23.3569 47.6016 24.155 47.6016 25.1395V62.2174C47.6016 63.202 48.3996 64 49.3842 64H61.2384C62.223 64 63.021 63.202 63.021 62.2174V25.1395C63.021 24.1552 62.223 23.3569 61.2384 23.3569ZM59.4558 60.4348H51.1667V26.9221H59.4558V60.4348Z" fill="#335EEA"/>
<path d="M14.6232 45.9961H2.76892C1.78439 45.9961 0.986328 46.7942 0.986328 47.7787V62.2177C0.986328 63.2022 1.78439 64.0003 2.76892 64.0003H14.6232C15.6077 64.0003 16.4058 63.2022 16.4058 62.2177V47.7787C16.4058 46.7943 15.6077 45.9961 14.6232 45.9961ZM12.8406 60.4351H4.55151V49.5613H12.8406V60.4351Z" fill="#335EEA"/>
<path d="M63.199 1.78769C62.9279 1.41407 62.5014 1.18445 62.0403 1.1638L45.8187 0.00509322C44.8341 -0.0687763 43.9762 0.669578 43.9023 1.65394C43.8285 2.63846 44.5666 3.49641 45.5512 3.57028L57.032 4.34992L35.9253 20.8615L19.7929 8.20512C19.104 7.65954 18.1205 7.69742 17.4755 8.29417L0.89747 24.1591C0.192724 24.8276 0.153145 25.9376 0.808417 26.6548C1.12641 27.0674 1.62491 27.3001 2.1454 27.2786C2.61558 27.272 3.06408 27.0797 3.39317 26.7438L18.8126 11.9482L34.7667 24.5154C35.4179 25.0368 36.3438 25.0368 36.9949 24.5154L59.8124 6.7598L58.9207 17.831C58.9163 18.799 59.6507 19.6105 60.6142 19.7027H60.7033C61.6221 19.7073 62.3939 19.0126 62.4859 18.0983L63.6446 3.03545C63.7099 2.57159 63.5434 2.10517 63.199 1.78769Z" fill="#335EEA"/>
</g>
<defs>
<clipPath id="clip0">
<rect width="64" height="64" fill="white"/>
</clipPath>
</defs>
</svg>
