<svg width="48" height="49" viewBox="0 0 48 49" fill="none" xmlns="http://www.w3.org/2000/svg">
<g clip-path="url(#clip0)">
<path d="M45 18.1562H31.5C30.2595 18.1562 29.25 19.1641 29.25 20.4025V29.3875C29.25 30.6259 30.2595 31.6337 31.5 31.6337H35.25V33.1312H33.75V34.6287H37.5V38.3724C37.5 38.785 37.1632 39.1212 36.75 39.1212H32.2147C31.905 35.7451 29.5208 32.8736 26.25 31.9489V30.885C26.25 29.6465 25.2405 28.6387 24 28.6387C22.7595 28.6387 21.75 29.6465 21.75 30.885V31.9489C18.4792 32.8736 16.095 35.7458 15.7853 39.1212H10.5C10.0868 39.1212 9.75 38.785 9.75 38.3724V37.5855C13.9485 37.2059 17.25 33.6763 17.25 29.3875C17.25 24.8463 13.5487 21.1512 9 21.1512C4.45125 21.1512 0.75 24.8463 0.75 29.3875C0.75 33.6763 4.0515 37.2059 8.25 37.5855V38.3724C8.25 39.6109 9.2595 40.6187 10.5 40.6187H15.7882C16.1685 44.8102 19.704 48.1061 24 48.1061C28.296 48.1061 31.8315 44.8102 32.2118 40.6187H36.75C37.9905 40.6187 39 39.6109 39 38.3724V34.6287H42.75V33.1312H41.25V31.6337H45C46.2405 31.6337 47.25 30.6259 47.25 29.3875V20.4025C47.25 19.1641 46.2405 18.1562 45 18.1562ZM2.25 29.3875C2.25 25.6722 5.2785 22.6487 9 22.6487C12.7215 22.6487 15.75 25.6722 15.75 29.3875C15.75 33.1027 12.7215 36.1262 9 36.1262C5.2785 36.1262 2.25 33.1027 2.25 29.3875ZM24 40.6187C25.2405 40.6187 26.25 39.6109 26.25 38.3724V36.8824C27.1755 37.5773 27.75 38.6764 27.75 39.8699C27.75 41.9342 26.0677 43.6137 24 43.6137C21.9323 43.6137 20.25 41.9342 20.25 39.8699C20.25 38.6764 20.8245 37.5773 21.75 36.8824V38.3724C21.75 39.6109 22.7595 40.6187 24 40.6187ZM23.25 30.885C23.25 30.4724 23.5868 30.1362 24 30.1362C24.4132 30.1362 24.75 30.4724 24.75 30.885V38.3724C24.75 38.785 24.4132 39.1212 24 39.1212C23.5868 39.1212 23.25 38.785 23.25 38.3724V30.885ZM24 46.6087C20.2785 46.6087 17.25 43.5852 17.25 39.8699C17.25 36.994 19.0965 34.4602 21.75 33.522V35.1551C19.9403 36.0169 18.75 37.8408 18.75 39.8707C18.75 42.7608 21.105 45.1119 24 45.1119C26.895 45.1119 29.25 42.7608 29.25 39.8707C29.25 37.8416 28.0597 36.0169 26.25 35.1551V33.522C28.9035 34.4602 30.75 36.994 30.75 39.8699C30.75 43.5852 27.7215 46.6087 24 46.6087ZM31.5 19.6537H45C45.4132 19.6537 45.75 19.9899 45.75 20.4025V27.1412H30.75V20.4025C30.75 19.9899 31.0868 19.6537 31.5 19.6537ZM39.75 33.1312H36.75V31.6337H39.75V33.1312ZM45 30.1362H31.5C31.0868 30.1362 30.75 29.8 30.75 29.3875V28.6387H45.75V29.3875C45.75 29.8 45.4132 30.1362 45 30.1362Z" fill="#335EEA"/>
<path d="M3 19.6535H10.5C11.7405 19.6535 12.75 18.6457 12.75 17.4073V11.4173H20.25C20.6632 11.4173 21 11.7535 21 12.1661V21.8998H22.5V12.1661C22.5 10.9276 21.4905 9.91982 20.25 9.91982H12.75V3.92984C12.75 2.69141 11.7405 1.68359 10.5 1.68359H3C1.7595 1.68359 0.75 2.69141 0.75 3.92984V17.4073C0.75 18.6457 1.7595 19.6535 3 19.6535ZM10.5 18.156H3C2.58675 18.156 2.25 17.8199 2.25 17.4073V16.6585H11.25V17.4073C11.25 17.8199 10.9132 18.156 10.5 18.156ZM2.25 15.1611V6.17608H11.25V15.1611H2.25ZM3 3.18109H10.5C10.9132 3.18109 11.25 3.51728 11.25 3.92984V4.67858H2.25V3.92984C2.25 3.51728 2.58675 3.18109 3 3.18109Z" fill="#335EEA"/>
<path d="M11.25 32.3825C11.25 31.144 10.2405 30.1362 9 30.1362C7.7595 30.1362 6.75 31.144 6.75 32.3825C6.75 33.6209 7.7595 34.6287 9 34.6287C10.2405 34.6287 11.25 33.6209 11.25 32.3825ZM8.25 32.3825C8.25 31.9699 8.58675 31.6337 9 31.6337C9.41325 31.6337 9.75 31.9699 9.75 32.3825C9.75 32.795 9.41325 33.1312 9 33.1312C8.58675 33.1312 8.25 32.795 8.25 32.3825Z" fill="#335EEA"/>
<path d="M11.6518 29.7348L12.7123 28.6761C10.6656 26.6327 7.33484 26.6327 5.28809 28.6761L6.34859 29.7348C7.81034 28.2755 10.1893 28.2755 11.6518 29.7348Z" fill="#335EEA"/>
<path d="M13.7728 27.6177L14.8333 26.5589C11.6165 23.3475 6.38228 23.3475 3.16553 26.5589L4.22603 27.6177C6.85928 24.9903 11.1403 24.9903 13.7728 27.6177Z" fill="#335EEA"/>
<path d="M21 26.3926H22.5V27.8901H21V26.3926Z" fill="#335EEA"/>
<path d="M21 23.3975H22.5V24.895H21V23.3975Z" fill="#335EEA"/>
<path d="M25.5 26.3926H27V27.8901H25.5V26.3926Z" fill="#335EEA"/>
<path d="M25.5 23.3975H27V24.895H25.5V23.3975Z" fill="#335EEA"/>
<path d="M27 10.6686C27 10.256 27.3368 9.91982 27.75 9.91982H32.2882C32.6655 13.698 35.868 16.6585 39.75 16.6585C43.8855 16.6585 47.25 13.2997 47.25 9.17107C47.25 5.04248 43.8855 1.68359 39.75 1.68359C35.8673 1.68359 32.6655 4.64414 32.2882 8.42232H27.75C26.5095 8.42232 25.5 9.43014 25.5 10.6686V21.8998H27V10.6686ZM39.75 3.18109C39.9847 3.18109 40.4873 3.94706 40.8465 5.42733H38.6535C39.0127 3.94706 39.5153 3.18109 39.75 3.18109ZM41.1143 6.92483C41.172 7.38456 41.2147 7.88098 41.235 8.42232H38.2635C38.2838 7.88098 38.3273 7.38456 38.3843 6.92483H41.1143ZM39.75 15.1611C39.5153 15.1611 39.0127 14.3951 38.6535 12.9148H40.8465C40.4873 14.3951 39.9847 15.1611 39.75 15.1611ZM38.3857 11.4173C38.328 10.9576 38.2853 10.4612 38.265 9.91982H41.2365C41.2162 10.4612 41.1727 10.9576 41.1157 11.4173H38.3857ZM42.7357 9.91982H45.6982C45.6322 10.4424 45.501 10.9449 45.3083 11.4173H42.624C42.6795 10.9254 42.7177 10.4237 42.7357 9.91982ZM45.6982 8.42232H42.7357C42.7177 7.91842 42.6795 7.41675 42.624 6.92483H45.3083C45.5002 7.39729 45.6322 7.8997 45.6982 8.42232ZM36.7643 8.42232H33.8018C33.8678 7.8997 33.999 7.39729 34.1918 6.92483H36.876C36.8205 7.41675 36.7823 7.91842 36.7643 8.42232ZM36.7643 9.91982C36.7823 10.4237 36.8205 10.9254 36.876 11.4173H34.1918C33.9998 10.9449 33.8678 10.4424 33.8018 9.91982H36.7643ZM35.0737 12.9148H37.113C37.257 13.6029 37.443 14.2408 37.677 14.7852C36.6473 14.4048 35.7495 13.7542 35.0737 12.9148ZM41.823 14.7852C42.057 14.2408 42.243 13.6029 42.387 12.9148H44.4263C43.7505 13.7542 42.8528 14.4048 41.823 14.7852ZM44.4263 5.42733H42.387C42.243 4.73923 42.057 4.1013 41.823 3.55696C42.8528 3.93732 43.7505 4.58799 44.4263 5.42733ZM37.677 3.55696C37.443 4.1013 37.2578 4.73923 37.113 5.42733H35.0737C35.7495 4.58799 36.6473 3.93732 37.677 3.55696Z" fill="#335EEA"/>
</g>
<defs>
<clipPath id="clip0">
<rect width="48" height="47.9198" fill="white" transform="translate(0 0.935059)"/>
</clipPath>
</defs>
</svg>
