<svg width="48" height="49" viewBox="0 0 48 49" fill="none" xmlns="http://www.w3.org/2000/svg">
<path d="M1.56 33.5865C1.58625 33.9159 1.8255 34.1892 2.1495 34.2588L4.76325 34.8219C4.8555 35.2667 4.9725 35.7054 5.11425 36.1337L3.13575 37.9232C2.8905 38.1448 2.82 38.5012 2.9625 38.8C3.324 39.5592 3.72675 40.2608 4.1595 40.8853C4.347 41.1563 4.6905 41.2731 5.00625 41.172L7.5465 40.3551C7.85025 40.6951 8.1735 41.0178 8.514 41.321L7.69575 43.857C7.5945 44.1708 7.71075 44.5144 7.983 44.7024C8.6085 45.1344 9.31125 45.5365 10.0717 45.8974C10.3717 46.0396 10.728 45.9685 10.95 45.7244L12.7425 43.7492C13.1722 43.89 13.6117 44.0075 14.0573 44.0996L14.6213 46.709C14.691 47.0317 14.9648 47.2706 15.294 47.2975C15.693 47.329 16.0927 47.3574 16.5 47.3574C16.9073 47.3574 17.307 47.329 17.706 47.2975C18.036 47.2713 18.3097 47.0325 18.3795 46.709L18.9435 44.0996C19.389 44.0075 19.8293 43.8907 20.2582 43.7492L22.0507 45.7244C22.2735 45.9692 22.6305 46.0404 22.929 45.8974C23.6895 45.5365 24.3922 45.1336 25.0177 44.7024C25.29 44.5144 25.4063 44.1708 25.305 43.857L24.4867 41.321C24.8272 41.0178 25.1505 40.6951 25.4543 40.3559L27.9945 41.1728C28.3088 41.2746 28.653 41.1578 28.8413 40.886C29.274 40.2615 29.6767 39.56 30.0382 38.8007C30.1807 38.502 30.1103 38.1456 29.865 37.924L27.8865 36.1345C28.0275 35.7054 28.1453 35.2667 28.2375 34.8219L30.8512 34.2588C31.1745 34.1892 31.4138 33.9159 31.4408 33.5872C31.4715 33.1881 31.5 32.789 31.5 32.3825C31.5 31.9759 31.4715 31.5768 31.44 31.1785C31.4137 30.849 31.1745 30.5758 30.8505 30.5061L28.2367 29.9431C28.1445 29.4983 28.0275 29.0588 27.8857 28.6305L29.8643 26.841C30.1095 26.6194 30.18 26.263 30.0375 25.9642C29.676 25.205 29.2725 24.5034 28.8405 23.879C28.6522 23.6072 28.308 23.4904 27.9938 23.5922L25.4535 24.4091C25.1497 24.0691 24.8265 23.7464 24.486 23.4432L25.3042 20.9072C25.4055 20.5934 25.2892 20.2498 25.017 20.0618C24.3915 19.6298 23.6887 19.2277 22.9282 18.8668C22.6283 18.7238 22.272 18.795 22.05 19.0398L20.2575 21.015C19.8277 20.8742 19.3883 20.7567 18.9427 20.6646L18.3787 18.0552C18.309 17.7325 18.0352 17.4936 17.706 17.4667C16.9072 17.4023 16.092 17.4038 15.2933 17.4667C14.9633 17.4929 14.6895 17.7317 14.6198 18.0552L14.0557 20.6646C13.6102 20.7567 13.1708 20.8735 12.7418 21.015L10.9493 19.0398C10.7273 18.795 10.371 18.7246 10.071 18.8668C9.3105 19.2277 8.60775 19.6298 7.98225 20.0618C7.71 20.2498 7.59375 20.5934 7.695 20.9072L8.51325 23.4432C8.17275 23.7464 7.8495 24.0691 7.54575 24.4091L5.00625 23.5922C4.69125 23.4904 4.347 23.6072 4.1595 23.879C3.72675 24.5034 3.324 25.205 2.9625 25.9642C2.82 26.263 2.8905 26.6194 3.13575 26.841L5.11425 28.6305C4.97325 29.0595 4.8555 29.4983 4.76325 29.9431L2.1495 30.5061C1.82625 30.5758 1.587 30.849 1.56 31.1777C1.5285 31.5768 1.5 31.9759 1.5 32.3825C1.5 32.789 1.5285 33.1881 1.56 33.5865ZM3.01575 31.8516L5.56725 31.3013C5.86875 31.2361 6.09975 30.9936 6.14925 30.6896C6.26175 29.9992 6.44325 29.3216 6.6885 28.6747C6.798 28.3872 6.71925 28.0615 6.4905 27.8548L4.56375 26.1117C4.73175 25.7905 4.90725 25.4828 5.08875 25.1915L7.56075 25.9867C7.85325 26.0803 8.17575 25.9867 8.3715 25.7486C8.814 25.208 9.3135 24.7101 9.855 24.2676C10.0935 24.0729 10.1888 23.7517 10.0935 23.4582L9.297 20.9903C9.58875 20.8083 9.89625 20.6331 10.2188 20.4662L11.9648 22.3904C12.1725 22.6188 12.4995 22.6974 12.7867 22.5881C13.4332 22.3433 14.112 22.1621 14.8043 22.0498C15.1088 22.0003 15.3517 21.7697 15.417 21.4687L15.9675 18.9215C16.3208 18.9028 16.68 18.902 17.0317 18.9215L17.583 21.4687C17.6483 21.7697 17.8913 22.0003 18.1957 22.0498C18.8872 22.1621 19.566 22.3433 20.214 22.5881C20.5005 22.6974 20.8275 22.6196 21.0353 22.3904L22.7812 20.4669C23.103 20.6346 23.4112 20.8098 23.703 20.991L22.9065 23.4589C22.812 23.7524 22.9065 24.0729 23.145 24.2683C23.6865 24.7101 24.1853 25.2087 24.6285 25.7493C24.8243 25.9882 25.146 26.0833 25.4392 25.9874L27.9113 25.1923C28.0935 25.4835 28.269 25.7905 28.4363 26.1117L26.5088 27.8548C26.28 28.0615 26.2013 28.3872 26.3108 28.6754C26.556 29.3208 26.7375 29.9985 26.85 30.6896C26.8995 30.9936 27.1305 31.2361 27.432 31.3013L29.9835 31.8509C29.9932 32.0268 30 32.2043 30 32.3825C30 32.5607 29.994 32.7381 29.9842 32.9133L27.4328 33.4637C27.1313 33.5288 26.9002 33.7714 26.8507 34.0754C26.7382 34.7657 26.5568 35.4434 26.3115 36.0903C26.202 36.3778 26.2808 36.7035 26.5095 36.9102L28.4363 38.6532C28.2683 38.9745 28.0928 39.2822 27.9113 39.5734L25.4392 38.7783C25.1445 38.6824 24.8243 38.7775 24.6285 39.0164C24.1868 39.5555 23.6873 40.0541 23.145 40.4974C22.9065 40.6921 22.812 41.0133 22.9065 41.306L23.703 43.7739C23.4112 43.9559 23.1038 44.1311 22.782 44.298L21.036 42.3738C20.829 42.1454 20.5028 42.0683 20.214 42.1761C19.5675 42.4209 18.8888 42.6021 18.1965 42.7144C17.892 42.7639 17.649 42.9945 17.5837 43.2955L17.0333 45.8427C16.68 45.8614 16.3208 45.8622 15.969 45.8427L15.4177 43.2955C15.3525 42.9945 15.1095 42.7639 14.805 42.7144C14.1135 42.6021 13.4347 42.4209 12.7867 42.1761C12.4995 42.0668 12.1725 42.1446 11.9655 42.3738L10.2195 44.2973C9.89775 44.1296 9.5895 43.9544 9.29775 43.7732L10.0942 41.3053C10.1887 41.0118 10.0942 40.6913 9.85575 40.4959C9.31425 40.0541 8.8155 39.5555 8.37225 39.0149C8.1765 38.776 7.854 38.6817 7.5615 38.7768L5.0895 39.572C4.90725 39.2807 4.73175 38.9737 4.5645 38.6517L6.492 36.9087C6.72075 36.702 6.7995 36.3763 6.69 36.088C6.44475 35.4426 6.26325 34.765 6.15075 34.0739C6.10125 33.7699 5.87025 33.5273 5.56875 33.4622L3.01575 32.9141C3.00675 32.7381 3 32.5607 3 32.3825C3 32.2043 3.006 32.0268 3.01575 31.8516Z" fill="#335EEA"/>
<path d="M40.6643 13.0912C40.9463 13.0028 41.1502 12.7565 41.184 12.463C41.229 12.0848 41.25 11.7427 41.25 11.4177C41.25 11.0927 41.229 10.7506 41.1847 10.3725C41.151 10.0789 40.947 9.8326 40.665 9.74425L38.5852 9.09209C38.523 8.92213 38.454 8.75516 38.3783 8.59193L39.3862 6.6639C39.5227 6.40259 39.4927 6.08512 39.3097 5.85301C38.8755 5.30493 38.376 4.80626 37.8255 4.37124C37.593 4.1878 37.275 4.15859 37.0133 4.29412L35.0805 5.30043C34.917 5.22556 34.7497 5.15667 34.5795 5.09453L33.9263 3.01825C33.8378 2.73672 33.591 2.53306 33.297 2.49937C32.538 2.41102 31.9613 2.41102 31.2023 2.49937C30.9083 2.53306 30.6615 2.73672 30.573 3.01825L29.9198 5.09453C29.7495 5.15667 29.5822 5.22556 29.4187 5.30118L27.4875 4.29487C27.2258 4.15934 26.9085 4.18854 26.6753 4.37124C26.1263 4.80476 25.6268 5.30343 25.191 5.85301C25.0073 6.08512 24.9773 6.40184 25.1138 6.6639L26.121 8.59193C26.046 8.75516 25.977 8.92213 25.9148 9.09209L23.835 9.74425C23.553 9.8326 23.349 10.0789 23.3152 10.3725C23.271 10.7506 23.25 11.0927 23.25 11.4177C23.25 11.7427 23.271 12.0848 23.3152 12.463C23.349 12.7565 23.553 13.0028 23.835 13.0912L25.9148 13.7433C25.977 13.9133 26.046 14.0802 26.1217 14.2435L25.1138 16.1715C24.9773 16.4328 25.0073 16.7503 25.1903 16.9824C25.6245 17.5305 26.124 18.0291 26.6745 18.4642C26.9063 18.6476 27.225 18.6768 27.4867 18.5413L29.418 17.5357C29.5815 17.6106 29.7487 17.6795 29.919 17.7416L30.5723 19.8179C30.6608 20.0994 30.9075 20.3031 31.2015 20.3368C31.5818 20.3817 31.9245 20.4027 32.25 20.4027C32.5755 20.4027 32.9183 20.3817 33.297 20.3375C33.591 20.3038 33.8378 20.1002 33.9263 19.8186L34.5795 17.7424C34.7497 17.6802 34.917 17.6113 35.0805 17.5357L37.0117 18.542C37.2735 18.6783 37.5915 18.6491 37.824 18.4657C38.373 18.0321 38.8725 17.5335 39.3083 16.9839C39.492 16.7518 39.522 16.4351 39.3855 16.173L38.3775 14.245C38.4532 14.0817 38.5222 13.9148 38.5845 13.7448L40.6643 13.0912ZM37.7693 12.4293C37.5323 12.5041 37.3477 12.6906 37.2758 12.9287C37.1737 13.2671 37.0387 13.5928 36.8752 13.8976C36.7575 14.1162 36.7552 14.379 36.8707 14.5984L37.8225 16.4193C37.6448 16.6163 37.4565 16.8042 37.26 16.9809L35.436 16.0307C35.2155 15.9154 34.9523 15.9184 34.734 16.0352C34.4288 16.1985 34.1025 16.3332 33.7635 16.4351C33.5258 16.5062 33.3383 16.6911 33.2633 16.9277L32.6453 18.8924C32.3715 18.9089 32.1292 18.9089 31.8547 18.8924L31.2367 16.9277C31.1617 16.6911 30.975 16.5069 30.7365 16.4351C30.3967 16.3332 30.0705 16.1985 29.7667 16.0352C29.5477 15.9177 29.2845 15.9154 29.064 16.0307L27.24 16.9809C27.0427 16.8034 26.8545 16.6155 26.6775 16.4193L27.6293 14.5984C27.744 14.379 27.7425 14.1154 27.6248 13.8976C27.4613 13.5928 27.3263 13.2671 27.2242 12.9287C27.153 12.6913 26.9677 12.5041 26.7307 12.4293L24.7627 11.8123C24.7537 11.6753 24.75 11.5442 24.75 11.4177C24.75 11.2912 24.7537 11.1601 24.7627 11.0231L26.7307 10.4061C26.9677 10.3313 27.1522 10.1448 27.2242 9.90673C27.3263 9.56755 27.4613 9.24184 27.6248 8.9386C27.7425 8.71996 27.7448 8.45715 27.6293 8.23702L26.6775 6.41607C26.8552 6.21915 27.0435 6.03121 27.24 5.85451L29.064 6.80467C29.2837 6.91923 29.5477 6.91698 29.766 6.80018C30.0712 6.63695 30.3975 6.50217 30.7365 6.40034C30.9742 6.32921 31.1617 6.14427 31.2367 5.90767L31.8547 3.94296C32.1285 3.92648 32.3708 3.92648 32.6453 3.94296L33.2633 5.90767C33.3383 6.14427 33.525 6.32846 33.7635 6.40034C34.1033 6.50217 34.4295 6.63695 34.7333 6.80018C34.9523 6.91773 35.2155 6.91998 35.436 6.80467L37.26 5.85451C37.4573 6.03196 37.6455 6.2199 37.8225 6.41607L36.8707 8.23702C36.756 8.4564 36.7575 8.71996 36.8752 8.93785C37.0387 9.24259 37.1737 9.5683 37.2758 9.90673C37.347 10.1441 37.5323 10.3313 37.7693 10.4061L39.7373 11.0231C39.7463 11.1601 39.75 11.2912 39.75 11.4177C39.75 11.5442 39.7463 11.6753 39.7373 11.8123L37.7693 12.4293Z" fill="#335EEA"/>
<path d="M45.9465 27.1143L44.658 26.6576C44.5845 26.4487 44.5005 26.2443 44.4053 26.0459L44.991 24.8142C45.1132 24.5581 45.0795 24.2556 44.904 24.0325C44.529 23.554 44.0955 23.1205 43.6147 22.7446C43.3905 22.5694 43.086 22.5365 42.831 22.6578L41.5965 23.2425C41.3985 23.1482 41.1938 23.0636 40.9845 22.991L40.5262 21.7046C40.431 21.4373 40.1918 21.2464 39.9098 21.2119C39.2415 21.1318 38.7577 21.1318 38.0895 21.2119C37.8075 21.2456 37.5683 21.4366 37.473 21.7046L37.0155 22.991C36.8063 23.0643 36.6015 23.1482 36.4027 23.2433L35.169 22.6585C34.914 22.5372 34.6102 22.5709 34.386 22.7454C33.9067 23.1198 33.4725 23.5525 33.096 24.0325C32.9212 24.2556 32.8875 24.5588 33.009 24.8149L33.5947 26.0474C33.5002 26.245 33.4155 26.4494 33.3428 26.6583L32.0542 27.1158C31.7865 27.2109 31.5953 27.4498 31.5608 27.7313C31.5195 28.063 31.5 28.3602 31.5 28.6388C31.5 28.9173 31.5195 29.2138 31.56 29.547C31.5938 29.8285 31.785 30.0674 32.0535 30.1625L33.342 30.6192C33.4155 30.8281 33.4995 31.0325 33.5947 31.2309L33.009 32.4626C32.8868 32.7187 32.9205 33.0212 33.096 33.2443C33.471 33.7228 33.9045 34.1563 34.3853 34.5322C34.6088 34.7066 34.9132 34.7403 35.169 34.619L36.4035 34.0342C36.6015 34.1286 36.8063 34.2132 37.0155 34.2858L37.4738 35.5722C37.569 35.8395 37.8082 36.0304 38.0902 36.0648C38.424 36.1068 38.721 36.1262 39 36.1262C39.279 36.1262 39.576 36.1068 39.9098 36.0663C40.1918 36.0327 40.431 35.8417 40.5262 35.5737L40.9838 34.2873C41.193 34.2139 41.3978 34.1301 41.5965 34.035L42.8302 34.6198C43.086 34.7418 43.3905 34.7089 43.6133 34.5329C44.0925 34.1585 44.5267 33.7258 44.9032 33.2458C45.078 33.0227 45.1117 32.7194 44.9902 32.4634L44.4045 31.2309C44.499 31.0333 44.5837 30.8289 44.6565 30.62L45.945 30.1625C46.2127 30.0674 46.404 29.8285 46.4385 29.547C46.4805 29.2138 46.5 28.9173 46.5 28.6388C46.5 28.3602 46.4805 28.0637 46.44 27.7305C46.4062 27.4483 46.215 27.2102 45.9465 27.1143ZM44.9925 28.9121L43.8037 29.3336C43.5735 29.4152 43.3973 29.6039 43.332 29.839C43.2338 30.1947 43.0935 30.5339 42.9158 30.8476C42.7958 31.0595 42.7867 31.317 42.891 31.5372L43.4295 32.67C43.305 32.8063 43.1745 32.9366 43.0387 33.0601L41.904 32.5225C41.685 32.4184 41.4263 32.4274 41.2133 32.5472C40.8983 32.7254 40.5585 32.8647 40.2037 32.9628C39.9682 33.0279 39.7793 33.2039 39.6968 33.4338L39.2745 34.6205C39.093 34.6302 38.9085 34.6302 38.727 34.6205L38.3048 33.4338C38.223 33.2039 38.034 33.0279 37.7985 32.9628C37.4422 32.8647 37.1025 32.7247 36.7882 32.5472C36.576 32.4282 36.3188 32.4192 36.0975 32.5225L34.9628 33.0601C34.8263 32.9358 34.6958 32.8056 34.572 32.67L35.1105 31.5372C35.2155 31.317 35.2057 31.0595 35.0857 30.8476C34.9072 30.5331 34.7678 30.1939 34.6695 29.8398C34.6043 29.6047 34.428 29.416 34.1978 29.3336L33.009 28.9121C33.003 28.8215 33 28.7309 33 28.6388C33 28.5467 33.003 28.4553 33.0075 28.3655L34.1963 27.9432C34.4265 27.8616 34.6027 27.6729 34.6672 27.4378C34.7662 27.0814 34.9065 26.7429 35.0842 26.4292C35.2042 26.2173 35.2133 25.9598 35.109 25.7396L34.5705 24.6068C34.695 24.4705 34.8255 24.3402 34.9613 24.2167L36.096 24.7543C36.3165 24.8591 36.5745 24.8501 36.7867 24.7296C37.1017 24.5514 37.4415 24.4121 37.7963 24.314C38.0318 24.2489 38.2207 24.0729 38.3032 23.843L38.7255 22.6563C38.907 22.6465 39.0915 22.6465 39.273 22.6563L39.6952 23.843C39.777 24.0729 39.966 24.2489 40.2015 24.314C40.5578 24.4121 40.8975 24.5521 41.2118 24.7296C41.4248 24.8501 41.682 24.8591 41.9025 24.7543L43.0372 24.2167C43.1737 24.341 43.3042 24.4712 43.428 24.6068L42.8895 25.7396C42.7845 25.9598 42.7943 26.2173 42.9143 26.4292C43.0928 26.7437 43.2322 27.0829 43.3305 27.437C43.3957 27.6721 43.572 27.8608 43.8022 27.9432L44.991 28.3647C44.997 28.4561 45 28.5467 45 28.6388C45 28.7309 44.997 28.8215 44.9925 28.9121Z" fill="#335EEA"/>
<path d="M16.5 40.6184C21.0487 40.6184 24.75 36.9234 24.75 32.3822C24.75 27.8411 21.0487 24.146 16.5 24.146C11.9513 24.146 8.25 27.8411 8.25 32.3822C8.25 36.9234 11.9513 40.6184 16.5 40.6184ZM16.5 25.6435C20.2215 25.6435 23.25 28.6669 23.25 32.3822C23.25 36.0975 20.2215 39.1209 16.5 39.1209C12.7785 39.1209 9.75 36.0975 9.75 32.3822C9.75 28.6669 12.7785 25.6435 16.5 25.6435Z" fill="#335EEA"/>
<path d="M1.5166 19.9226L2.6686 20.8817C6.10285 16.7703 11.1436 14.4125 16.5001 14.4125C16.8819 14.4125 17.2629 14.4343 17.6439 14.4582L16.7199 15.3807L17.7804 16.4394L20.0304 14.1932C20.3236 13.9004 20.3236 13.4272 20.0304 13.1344L17.7804 10.8882L16.7199 11.9469L17.7391 12.9645C17.3266 12.9383 16.9134 12.915 16.5001 12.915C10.6981 12.915 5.2366 15.469 1.5166 19.9226Z" fill="#335EEA"/>
<path d="M32.25 7.67383C30.1823 7.67383 28.5 9.35327 28.5 11.4176C28.5 13.4819 30.1823 15.1613 32.25 15.1613C34.3177 15.1613 36 13.4819 36 11.4176C36 9.35327 34.3177 7.67383 32.25 7.67383ZM32.25 13.6638C31.0095 13.6638 30 12.656 30 11.4176C30 10.1791 31.0095 9.17132 32.25 9.17132C33.4905 9.17132 34.5 10.1791 34.5 11.4176C34.5 12.656 33.4905 13.6638 32.25 13.6638Z" fill="#335EEA"/>
<path d="M39 25.6436C37.3455 25.6436 36 26.9868 36 28.6385C36 30.2903 37.3455 31.6335 39 31.6335C40.6545 31.6335 42 30.2903 42 28.6385C42 26.9868 40.6545 25.6436 39 25.6436ZM39 30.136C38.1727 30.136 37.5 29.4644 37.5 28.6385C37.5 27.8127 38.1727 27.141 39 27.141C39.8273 27.141 40.5 27.8127 40.5 28.6385C40.5 29.4644 39.8273 30.136 39 30.136Z" fill="#335EEA"/>
<path d="M45.8969 4.69396L42.1469 3.94522C41.7389 3.86285 41.3452 4.12716 41.2642 4.53223L40.5142 8.27597L41.9849 8.57023L42.3892 6.5546C43.1159 8.06408 43.4999 9.72779 43.4999 11.4177C43.4999 13.9994 42.6464 16.4268 41.0324 18.4372L42.2032 19.3739C44.0069 17.1269 44.9999 14.3019 44.9999 11.4177C44.9999 9.45675 44.5462 7.52348 43.6829 5.7789L45.6029 6.16226L45.8969 4.69396Z" fill="#335EEA"/>
</svg>
