<svg width="112" height="131" viewBox="0 0 112 131" fill="none" xmlns="http://www.w3.org/2000/svg">
<path d="M105.67 47.2003C114.52 72.7333 114.956 103.06 96.9638 118.733C78.8278 134.403 42.2638 135.418 21.3718 119.168C0.623789 103.06 -4.45421 69.6893 4.83179 43.5733C14.1178 17.6013 37.9118 -0.966699 58.5148 0.0453013C79.1178 0.916301 96.6738 21.6643 105.67 47.2003Z" fill="#E4EDFB"/>
<path d="M76.4599 57.5789C76.3444 57.4569 76.2056 57.3593 76.0518 57.2918C75.898 57.2244 75.7322 57.1885 75.5643 57.1862C75.3963 57.1839 75.2296 57.2152 75.074 57.2785C74.9184 57.3417 74.777 57.4354 74.6582 57.5542C74.5394 57.673 74.4457 57.8143 74.3825 57.97C74.3193 58.1256 74.2879 58.2923 74.2902 58.4602C74.2925 58.6282 74.3284 58.794 74.3958 58.9478C74.4633 59.1016 74.5609 59.2404 74.6829 59.3559L74.7419 59.4129C74.9862 59.6348 75.3081 59.7517 75.6379 59.7383C75.9677 59.725 76.279 59.5824 76.5046 59.3415C76.7302 59.1005 76.852 58.7805 76.8436 58.4505C76.8352 58.1205 76.6974 57.8071 76.4599 57.5779V57.5789Z" fill="#335EEA"/>
<path d="M73.9059 55.5139C73.2015 55.0334 72.4666 54.5991 71.7059 54.2139C67.7731 52.1375 63.1791 51.6997 58.9249 52.9959C58.6153 53.1018 58.3593 53.3242 58.2111 53.6158C58.0629 53.9075 58.0342 54.2454 58.1312 54.5579C58.2282 54.8703 58.4432 55.1327 58.7305 55.2891C59.0178 55.4456 59.3548 55.4839 59.6699 55.3959C63.3028 54.298 67.2224 54.6801 70.5749 56.4589C71.2358 56.7947 71.8748 57.1721 72.4879 57.5889C72.6242 57.6867 72.7788 57.7563 72.9424 57.7934C73.106 57.8306 73.2754 57.8346 73.4407 57.8052C73.6059 57.7759 73.7635 57.7137 73.9043 57.6225C74.0452 57.5312 74.1663 57.4127 74.2606 57.2739C74.3549 57.135 74.4204 56.9788 74.4533 56.8142C74.4862 56.6497 74.4858 56.4802 74.4522 56.3158C74.4186 56.1514 74.3524 55.9954 74.2576 55.857C74.1627 55.7186 74.0411 55.6006 73.8999 55.5099L73.9059 55.5139Z" fill="#335EEA"/>
<path d="M85.3386 71.7781C84.7453 70.681 84.2809 69.519 83.9546 68.3151C85.4246 64.6931 84.8876 60.6841 82.4406 57.0151C80.3305 54.0985 77.5796 51.7046 74.3995 50.0175C71.2194 48.3303 67.6948 47.3949 64.0966 47.2831C60.4915 47.2796 56.9383 48.1428 53.7366 49.8001C53.4123 48.0357 52.6518 46.3804 51.5244 44.9849C50.3971 43.5894 48.9386 42.498 47.2818 41.8099C45.625 41.1219 43.8224 40.8591 42.0382 41.0455C40.2539 41.2319 38.5446 41.8616 37.0657 42.8772C35.5869 43.8928 34.3855 45.2621 33.5709 46.8605C32.7563 48.4589 32.3544 50.2356 32.4017 52.0289C32.449 53.8223 32.944 55.5754 33.8417 57.1286C34.7394 58.6818 36.0113 59.9859 37.5416 60.9221C37.8985 61.0883 38.2014 61.3515 38.4159 61.6816C38.6304 62.0118 38.7478 62.3955 38.7546 62.7891V70.1431C38.7552 70.8178 39.0233 71.4646 39.5003 71.9418C39.9772 72.4189 40.624 72.6873 41.2986 72.6881H41.7286C42.4135 78.1872 45.1141 83.2366 49.3076 86.8591C49.401 87.6894 49.2831 88.5297 48.9646 89.3021C48.5756 90.6551 47.9786 92.1571 47.4526 93.4831C47.1006 94.3701 46.7956 95.1361 46.6116 95.7161C46.5518 95.9046 46.5374 96.1046 46.5694 96.2998C46.6015 96.4949 46.6791 96.6798 46.796 96.8393C46.913 96.9988 47.0659 97.1285 47.2423 97.2177C47.4188 97.307 47.6139 97.3534 47.8116 97.3531H65.7506C66.1903 97.3395 66.6138 97.184 66.9579 96.9098C67.3019 96.6357 67.5481 96.2577 67.6596 95.8321C67.8835 95.2137 68.0574 94.5784 68.1796 93.9321C68.3286 93.2531 68.6796 91.6621 69.0276 91.4701C69.0509 91.4669 69.0744 91.4669 69.0976 91.4701C69.1638 91.4805 69.2307 91.4856 69.2976 91.4851C71.1766 91.4851 72.7116 91.5701 74.0656 91.6451C78.0376 91.8651 80.4356 91.9991 82.5386 88.9691C83.6086 87.4281 83.4866 85.1811 83.3586 82.8011C83.2609 81.622 83.2565 80.437 83.3456 79.2571C83.6987 78.9576 84.0705 78.6807 84.4586 78.4281C85.6436 77.6141 86.7586 76.8461 86.7586 75.6781C86.7516 74.7871 86.2146 73.6151 85.3386 71.7781ZM38.8556 58.7781C37.3221 57.8408 36.1368 56.428 35.4803 54.7548C34.8238 53.0817 34.732 51.2398 35.2189 49.5097C35.7058 47.7796 36.7447 46.2559 38.1774 45.1707C39.6102 44.0855 41.3583 43.4982 43.1556 43.4982C44.953 43.4982 46.7011 44.0855 48.1338 45.1707C49.5666 46.2559 50.6055 47.7796 51.0923 49.5097C51.5792 51.2398 51.4874 53.0817 50.8309 54.7548C50.1744 56.428 48.9892 57.8408 47.4556 58.7781C46.3965 59.3508 45.606 60.3182 45.2556 61.4701H41.0556C40.7058 60.3166 39.9148 59.3477 38.8546 58.7741L38.8556 58.7781ZM45.0426 63.9841V65.8221H41.2686V63.9811L45.0426 63.9841ZM41.2996 70.1731C41.2918 70.1721 41.2845 70.1685 41.2789 70.1629C41.2733 70.1573 41.2697 70.15 41.2686 70.1421V68.3321H45.0426V70.1381C45.0416 70.146 45.038 70.1533 45.0324 70.1589C45.0268 70.1645 45.0195 70.1681 45.0116 70.1691L41.2996 70.1731ZM83.0286 76.3531C81.9466 77.0961 81.0126 77.7371 80.8746 78.7081C80.7303 80.1126 80.7193 81.5276 80.8416 82.9341C80.9416 84.6991 81.0416 86.7001 80.4666 87.5341C79.2166 89.3341 78.1346 89.3531 74.1966 89.1341C72.8966 89.0621 71.2856 88.9731 69.3736 88.9701C68.7892 88.9011 68.1982 89.0265 67.6922 89.3269C67.1861 89.6273 66.793 90.086 66.5736 90.6321C66.1788 91.5113 65.8943 92.436 65.7266 93.3851C65.6296 93.8754 65.505 94.3598 65.3536 94.8361H49.6156L49.7856 94.4071C51.5956 89.8491 52.7426 86.5071 50.9976 84.9971C47.3311 81.8479 44.9369 77.4712 44.2626 72.6851H45.0106C45.6854 72.6843 46.3322 72.4159 46.8093 71.9388C47.2865 71.4617 47.5548 70.8149 47.5556 70.1401V62.7871C47.563 62.3937 47.6806 62.0103 47.8953 61.6806C48.1099 61.3509 48.4129 61.0881 48.7696 60.9221C50.2211 60.0413 51.4418 58.8272 52.3304 57.3804C53.2191 55.9337 53.7502 54.296 53.8796 52.6031C56.9711 50.7669 60.501 49.7995 64.0966 49.8031C70.0846 49.8031 77.0716 53.5031 80.3506 58.4171C81.3039 59.6936 81.9184 61.1908 82.1366 62.7689C82.3548 64.3471 82.1698 65.9548 81.5986 67.4421C81.1056 68.6291 81.8366 70.2761 83.0706 72.8631C83.5021 73.7109 83.8799 74.5849 84.2016 75.4801C83.8289 75.795 83.4372 76.0865 83.0286 76.3531Z" fill="#335EEA"/>
<path d="M49.3198 49.9658C49.1277 49.2754 48.7903 48.6339 48.3302 48.0845C47.87 47.535 47.2978 47.0902 46.6519 46.7798C46.3564 46.6346 46.0158 46.611 45.7032 46.7143C45.3906 46.8175 45.131 47.0392 44.9801 47.3318C44.8293 47.6244 44.7992 47.9645 44.8964 48.279C44.9935 48.5935 45.2102 48.8573 45.4999 49.0138C45.8354 49.1638 46.134 49.3853 46.3748 49.6629C46.6156 49.9405 46.7928 50.2675 46.8939 50.6208C47.089 51.5015 46.9653 52.4228 46.5449 53.2208C46.4507 53.3599 46.3853 53.5165 46.3526 53.6813C46.32 53.8461 46.3207 54.0157 46.3547 54.1803C46.3887 54.3448 46.4554 54.5008 46.5508 54.6391C46.6461 54.7774 46.7683 54.8952 46.9099 54.9855C47.0516 55.0758 47.2099 55.1368 47.3755 55.1649C47.5411 55.193 47.7107 55.1876 47.8742 55.149C48.0378 55.1105 48.1919 55.0395 48.3275 54.9404C48.4631 54.8412 48.5775 54.7159 48.6638 54.5718C49.4622 53.1764 49.6969 51.5286 49.3198 49.9658Z" fill="#335EEA"/>
<path d="M43.1559 33.0049C42.8225 33.0049 42.5028 33.1373 42.2671 33.373C42.0314 33.6088 41.8989 33.9285 41.8989 34.2619V37.8439C41.9082 38.171 42.0446 38.4816 42.2792 38.7097C42.5138 38.9378 42.8282 39.0654 43.1554 39.0654C43.4827 39.0654 43.797 38.9378 44.0316 38.7097C44.2663 38.4816 44.4027 38.171 44.4119 37.8439V34.2619C44.4119 33.9287 44.2796 33.6091 44.0441 33.3734C43.8086 33.1377 43.4891 33.0051 43.1559 33.0049V33.0049Z" fill="#335EEA"/>
<path d="M29.2119 50.5308H25.6299C25.4619 50.526 25.2946 50.555 25.138 50.616C24.9815 50.6771 24.8387 50.7689 24.7182 50.886C24.5977 51.0031 24.5019 51.1433 24.4365 51.2981C24.3711 51.4529 24.3374 51.6192 24.3374 51.7873C24.3374 51.9553 24.3711 52.1217 24.4365 52.2765C24.5019 52.4313 24.5977 52.5714 24.7182 52.6885C24.8387 52.8057 24.9815 52.8975 25.138 52.9585C25.2946 53.0195 25.4619 53.0485 25.6299 53.0438H29.2129C29.54 53.0345 29.8506 52.8981 30.0787 52.6635C30.3068 52.4289 30.4344 52.1145 30.4344 51.7873C30.4344 51.46 30.3068 51.1457 30.0787 50.9111C29.8506 50.6764 29.54 50.54 29.2129 50.5308H29.2119Z" fill="#335EEA"/>
<path d="M37.2721 39.0827L35.4811 35.9827C35.3996 35.8377 35.2901 35.7104 35.1591 35.6081C35.028 35.5057 34.878 35.4304 34.7176 35.3865C34.5572 35.3425 34.3898 35.3309 34.2248 35.3521C34.0599 35.3733 33.9009 35.4271 33.7569 35.5102C33.6129 35.5934 33.4868 35.7043 33.386 35.8365C33.2851 35.9687 33.2115 36.1196 33.1694 36.2804C33.1273 36.4413 33.1175 36.6089 33.1406 36.7735C33.1637 36.9382 33.2193 37.0966 33.3041 37.2397L35.0951 40.3397C35.2638 40.6243 35.5379 40.831 35.858 40.9148C36.1781 40.9986 36.5184 40.9528 36.805 40.7874C37.0915 40.6219 37.3013 40.3501 37.3887 40.031C37.4762 39.7119 37.4343 39.3711 37.2721 39.0827Z" fill="#335EEA"/>
<path d="M31.7078 43.7269L28.6078 41.9359C28.4648 41.8511 28.3064 41.7956 28.1417 41.7725C27.977 41.7493 27.8094 41.7591 27.6486 41.8012C27.4877 41.8434 27.3368 41.917 27.2046 42.0178C27.0724 42.1186 26.9615 42.2447 26.8784 42.3887C26.7952 42.5327 26.7415 42.6918 26.7203 42.8567C26.699 43.0216 26.7107 43.1891 26.7547 43.3494C26.7986 43.5098 26.8739 43.6599 26.9763 43.7909C27.0786 43.922 27.2059 44.0314 27.3508 44.1129L30.4508 45.9039C30.5939 45.9887 30.7523 46.0442 30.917 46.0673C31.0816 46.0905 31.2493 46.0807 31.4101 46.0386C31.571 45.9964 31.7219 45.9228 31.8541 45.822C31.9863 45.7212 32.0972 45.5951 32.1803 45.4511C32.2634 45.3071 32.3172 45.148 32.3384 44.9831C32.3597 44.8182 32.348 44.6507 32.304 44.4904C32.2601 44.33 32.1848 44.1799 32.0824 44.0489C31.9801 43.9178 31.8528 43.8084 31.7078 43.7269Z" fill="#335EEA"/>
<path d="M59.4237 42.3969C59.257 42.1083 58.9825 41.8976 58.6605 41.8114C58.3385 41.7251 57.9954 41.7703 57.7067 41.9369L54.6067 43.7279C54.4618 43.8094 54.3345 43.9189 54.2321 44.0499C54.1298 44.181 54.0545 44.331 54.0105 44.4914C53.9666 44.6518 53.9549 44.8193 53.9761 44.9842C53.9974 45.1491 54.0511 45.3081 54.1343 45.4521C54.2174 45.5961 54.3283 45.7222 54.4605 45.823C54.5927 45.9239 54.7436 45.9975 54.9044 46.0396C55.0653 46.0817 55.2329 46.0915 55.3976 46.0684C55.5622 46.0453 55.7207 45.9897 55.8637 45.905L58.9637 44.114C59.2524 43.9472 59.463 43.6727 59.5493 43.3507C59.6355 43.0287 59.5904 42.6856 59.4237 42.3969Z" fill="#335EEA"/>
<path d="M32.1687 58.1319C32.002 57.8435 31.7277 57.633 31.4059 57.5468C31.0842 57.4605 30.7413 57.5055 30.4527 57.6719L27.3527 59.4629C27.2058 59.5432 27.0763 59.6521 26.972 59.7832C26.8678 59.9143 26.7907 60.0649 26.7455 60.2262C26.7002 60.3874 26.6877 60.5561 26.7085 60.7223C26.7294 60.8885 26.7832 61.0489 26.8669 61.194C26.9507 61.339 27.0625 61.4659 27.1959 61.5672C27.3294 61.6684 27.4817 61.742 27.644 61.7835C27.8062 61.8251 27.9752 61.8338 28.1409 61.8091C28.3065 61.7844 28.4656 61.7269 28.6087 61.6399L31.7087 59.8489C31.9974 59.6822 32.208 59.4076 32.2943 59.0856C32.3806 58.7636 32.3354 58.4206 32.1687 58.1319Z" fill="#335EEA"/>
<path d="M36.554 63.2289C36.2654 63.0623 35.9223 63.0171 35.6003 63.1034C35.2783 63.1896 35.0038 63.4003 34.837 63.6889L33.305 66.3429C33.2203 66.486 33.1647 66.6444 33.1416 66.8091C33.1185 66.9737 33.1283 67.1414 33.1704 67.3022C33.2125 67.4631 33.2861 67.614 33.387 67.7462C33.4878 67.8784 33.6139 67.9892 33.7579 68.0724C33.9019 68.1555 34.0609 68.2093 34.2258 68.2305C34.3907 68.2518 34.5582 68.2401 34.7186 68.1961C34.879 68.1522 35.029 68.0769 35.1601 67.9745C35.2911 67.8722 35.4005 67.7449 35.482 67.5999L37.014 64.9459C37.1807 64.6572 37.2259 64.3142 37.1396 63.9922C37.0534 63.6702 36.8427 63.3957 36.554 63.2289Z" fill="#335EEA"/>
<path d="M52.5479 35.5219C52.2592 35.3552 51.9162 35.3101 51.5942 35.3963C51.2722 35.4826 50.9976 35.6932 50.8309 35.9819L49.0399 39.0819C48.9551 39.2249 48.8996 39.3834 48.8765 39.548C48.8533 39.7127 48.8631 39.8803 48.9053 40.0412C48.9474 40.202 49.021 40.3529 49.1218 40.4851C49.2227 40.6173 49.3487 40.7282 49.4927 40.8114C49.6367 40.8945 49.7958 40.9483 49.9607 40.9695C50.1256 40.9907 50.2931 40.979 50.4535 40.9351C50.6138 40.8912 50.7639 40.8158 50.8949 40.7135C51.026 40.6112 51.1354 40.4838 51.2169 40.3389L53.0079 37.2389C53.1746 36.9502 53.2197 36.6071 53.1335 36.2851C53.0472 35.9632 52.8366 35.6886 52.5479 35.5219Z" fill="#335EEA"/>
</svg>
