<svg width="25" height="24" viewBox="0 0 25 24" fill="none" xmlns="http://www.w3.org/2000/svg">
<path d="M7.72925 5.02331C7.73045 5.41938 7.61293 5.80688 7.39161 6.1367C7.17028 6.46651 6.8551 6.72379 6.48604 6.87591C6.11697 7.02803 5.71063 7.06814 5.31853 6.99116C4.92642 6.91418 4.56622 6.72358 4.28357 6.44351C4.00092 6.16344 3.80856 5.80653 3.73087 5.41801C3.65318 5.02949 3.69367 4.62686 3.84719 4.26116C4.00071 3.89547 4.26035 3.58317 4.59321 3.36387C4.92607 3.14456 5.31715 3.02812 5.71687 3.02931C6.25058 3.02931 6.76244 3.23939 7.13984 3.61333C7.51723 3.98728 7.72925 4.49446 7.72925 5.02331ZM7.7898 8.49231H3.76302V20.9723H7.7898V8.49231ZM14.1479 8.49231H10.1453V20.9723H14.1116V14.4233C14.1116 10.7753 18.9134 10.4363 18.9134 14.4233V20.9723H22.8897V13.0723C22.8897 6.92231 15.7818 7.15131 14.1095 10.1723L14.1479 8.49231Z" fill="#F1F4F8"/>
</svg>
