<svg width="75" height="23" viewBox="0 0 75 23" fill="none" xmlns="http://www.w3.org/2000/svg">
<path d="M0.154297 1H12.223V4.1H3.57378V7.5H11.2173V10.6H3.57378V17.7H0.154297V1Z" fill="white" stroke="#003CC5" stroke-width="0.1" stroke-miterlimit="10"/>
<path d="M22.0789 6.30027L20.4698 9.20027C20.0059 8.95002 19.4888 8.81292 18.9612 8.80027C17.4526 8.80027 16.5474 9.80027 16.5474 11.9003V17.6003H13.2285V5.90027H16.5474V7.80027C16.7978 7.18136 17.2282 6.65086 17.7837 6.27673C18.3391 5.9026 18.9943 5.70187 19.6652 5.70027C20.5165 5.59929 21.3755 5.81281 22.0789 6.30027Z" fill="white" stroke="#003CC5" stroke-width="0.1" stroke-miterlimit="10"/>
<path d="M21.5762 11.7998C21.5762 10.2085 22.2119 8.68238 23.3436 7.55717C24.4753 6.43195 26.0101 5.7998 27.6105 5.7998C29.211 5.7998 30.7458 6.43195 31.8775 7.55717C33.0092 8.68238 33.6449 10.2085 33.6449 11.7998C33.6449 13.3911 33.0092 14.9172 31.8775 16.0424C30.7458 17.1677 29.211 17.7998 27.6105 17.7998C26.0101 17.7998 24.4753 17.1677 23.3436 16.0424C22.2119 14.9172 21.5762 13.3911 21.5762 11.7998ZM30.326 11.7998C30.326 10.0998 29.622 8.49981 27.51 8.49981C25.3979 8.49981 24.6939 10.0998 24.6939 11.7998C24.6939 13.4998 25.3979 15.0998 27.51 15.0998C29.622 15.0998 30.326 13.4998 30.326 11.7998Z" fill="white" stroke="#003CC5" stroke-width="0.1" stroke-miterlimit="10"/>
<path d="M46.6192 10V17.8H43.4008V11.1C43.4008 10.2 43.4008 8.60001 41.3894 8.60001C38.8751 8.60001 38.8751 11 38.8751 12.7V17.8H35.5562V5.90001H38.8751V7.10001C39.3029 6.59361 39.8442 6.19409 40.4556 5.93357C41.0669 5.67305 41.7313 5.5588 42.3951 5.60001C45.1106 5.60001 46.6192 7.30001 46.6192 10Z" fill="white" stroke="#003CC5" stroke-width="0.1" stroke-miterlimit="10"/>
<path d="M53.1561 8.4V13.9C53.1561 14.6 53.4578 15.3 54.6647 15.3C55.1822 15.2971 55.6944 15.1953 56.1733 15V17.6C55.4369 17.8861 54.6503 18.0221 53.8601 18C51.7481 18 49.9377 17 49.9377 14.2V8.5H48.0269V5.9H49.9377V3.9L53.1561 1.5V5.9H56.1733V8.4H53.1561Z" fill="white" stroke="#003CC5" stroke-width="0.1" stroke-miterlimit="10"/>
<path d="M61.5033 17.3998L56.877 5.89981H60.4976L63.2131 13.5998L66.1297 5.7998H69.7503L62.9113 22.4998H59.2907L61.5033 17.3998Z" fill="white" stroke="#003CC5" stroke-width="0.1" stroke-miterlimit="10"/>
<path d="M71.4604 14.4004H74.5782V17.7004H71.4604V14.4004Z" fill="white" stroke="#003CC5" stroke-width="0.1" stroke-miterlimit="10"/>
<path d="M0.154297 1H12.223V4.1H3.57378V7.5H11.2173V10.6H3.57378V17.7H0.154297V1Z" fill="white" stroke="#003CC5" stroke-width="0.1" stroke-miterlimit="10"/>
<path d="M22.0789 6.30027L20.4698 9.20027C20.0059 8.95002 19.4888 8.81292 18.9612 8.80027C17.4526 8.80027 16.5474 9.80027 16.5474 11.9003V17.6003H13.2285V5.90027H16.5474V7.80027C16.7978 7.18136 17.2282 6.65086 17.7837 6.27673C18.3391 5.9026 18.9943 5.70187 19.6652 5.70027C20.5165 5.59929 21.3755 5.81281 22.0789 6.30027Z" fill="white" stroke="#003CC5" stroke-width="0.1" stroke-miterlimit="10"/>
<path d="M21.5762 11.7998C21.5762 10.2085 22.2119 8.68238 23.3436 7.55717C24.4753 6.43195 26.0101 5.7998 27.6105 5.7998C29.211 5.7998 30.7458 6.43195 31.8775 7.55717C33.0092 8.68238 33.6449 10.2085 33.6449 11.7998C33.6449 13.3911 33.0092 14.9172 31.8775 16.0424C30.7458 17.1677 29.211 17.7998 27.6105 17.7998C26.0101 17.7998 24.4753 17.1677 23.3436 16.0424C22.2119 14.9172 21.5762 13.3911 21.5762 11.7998ZM30.326 11.7998C30.326 10.0998 29.622 8.49981 27.51 8.49981C25.3979 8.49981 24.6939 10.0998 24.6939 11.7998C24.6939 13.4998 25.3979 15.0998 27.51 15.0998C29.622 15.0998 30.326 13.4998 30.326 11.7998Z" fill="white" stroke="#003CC5" stroke-width="0.1" stroke-miterlimit="10"/>
<path d="M46.6192 10V17.8H43.4008V11.1C43.4008 10.2 43.4008 8.60001 41.3894 8.60001C38.8751 8.60001 38.8751 11 38.8751 12.7V17.8H35.5562V5.90001H38.8751V7.10001C39.3029 6.59361 39.8442 6.19409 40.4556 5.93357C41.0669 5.67305 41.7313 5.5588 42.3951 5.60001C45.1106 5.60001 46.6192 7.30001 46.6192 10Z" fill="white" stroke="#003CC5" stroke-width="0.1" stroke-miterlimit="10"/>
<path d="M53.1561 8.4V13.9C53.1561 14.6 53.4578 15.3 54.6647 15.3C55.1822 15.2971 55.6944 15.1953 56.1733 15V17.6C55.4369 17.8861 54.6503 18.0221 53.8601 18C51.7481 18 49.9377 17 49.9377 14.2V8.5H48.0269V5.9H49.9377V3.9L53.1561 1.5V5.9H56.1733V8.4H53.1561Z" fill="white" stroke="#003CC5" stroke-width="0.1" stroke-miterlimit="10"/>
<path d="M61.5033 17.3998L56.877 5.89981H60.4976L63.2131 13.5998L66.1297 5.7998H69.7503L62.9113 22.4998H59.2907L61.5033 17.3998Z" fill="white" stroke="#003CC5" stroke-width="0.1" stroke-miterlimit="10"/>
<path d="M71.4604 14.4004H74.5782V17.7004H71.4604V14.4004Z" fill="white" stroke="#003CC5" stroke-width="0.1" stroke-miterlimit="10"/>
</svg>
