<?xml version="1.0" encoding="utf-8"?>
<!-- Generator: Adobe Illustrator 24.0.2, SVG Export Plug-In . SVG Version: 6.00 Build 0)  -->
<svg version="1.1" id="Layer_1" xmlns="http://www.w3.org/2000/svg" xmlns:xlink="http://www.w3.org/1999/xlink" x="0px" y="0px"
	 viewBox="0 0 100 40" style="enable-background:new 0 0 100 40;" xml:space="preserve">
<style type="text/css">
	.st0{enable-background:new    ;}
	.st1{fill:#FFFFFF;stroke:#FFFFFF;stroke-width:0.1;stroke-miterlimit:10;}
</style>
<g>
	<g class="st0">
		<path class="st1" d="M12.2,10.1h12v3.1h-8.6v3.4h7.6v3.1h-7.6v7.1h-3.4C12.2,26.8,12.2,10.1,12.2,10.1z"/>
		<path class="st1" d="M34,15.4l-1.6,2.9c-0.4-0.2-0.9-0.4-1.5-0.4c-1.5,0-2.4,1-2.4,3.1v5.7h-3.3V15h3.3v1.9
			c0.5-1.3,1.8-2.1,3.1-2.1C32.5,14.7,33.2,14.9,34,15.4z"/>
		<path class="st1" d="M33.5,20.9c0-3.3,2.2-6.2,6-6.2c3.7,0,6,2.9,6,6.2c0,3.3-2.3,6.2-6,6.2C35.7,27.1,33.5,24.2,33.5,20.9z
			 M42.2,20.9c0-1.7-0.7-3.3-2.8-3.3c-2.1,0-2.8,1.6-2.8,3.3c0,1.7,0.7,3.3,2.8,3.3C41.5,24.2,42.2,22.6,42.2,20.9z"/>
		<path class="st1" d="M58.4,19.1v7.8h-3.2v-6.7c0-0.9,0-2.5-2-2.5c-2.5,0-2.5,2.4-2.5,4.1v5.1h-3.3V15h3.3v1.2
			c0.9-1.1,2.1-1.5,3.5-1.5C56.9,14.7,58.4,16.4,58.4,19.1z"/>
		<path class="st1" d="M64.9,17.5V23c0,0.7,0.3,1.4,1.5,1.4c0.5,0,1-0.1,1.5-0.3v2.6c-0.7,0.3-1.5,0.4-2.3,0.4c-2.1,0-3.9-1-3.9-3.8
			v-5.7h-1.9V15h1.9v-2l3.2-2.4V15h3v2.5L64.9,17.5L64.9,17.5z"/>
		<path class="st1" d="M73.2,26.5L68.6,15h3.6l2.7,7.7l2.9-7.8h3.6l-6.8,16.7H71L73.2,26.5z"/>
		<path class="st1" d="M83.1,23.5h3.1v3.3h-3.1V23.5z"/>
	</g>
	<g class="st0">
		<path class="st1" d="M12.2,10.1h12v3.1h-8.6v3.4h7.6v3.1h-7.6v7.1h-3.4C12.2,26.8,12.2,10.1,12.2,10.1z"/>
		<path class="st1" d="M34,15.4l-1.6,2.9c-0.4-0.2-0.9-0.4-1.5-0.4c-1.5,0-2.4,1-2.4,3.1v5.7h-3.3V15h3.3v1.9
			c0.5-1.3,1.8-2.1,3.1-2.1C32.5,14.7,33.2,14.9,34,15.4z"/>
		<path class="st1" d="M33.5,20.9c0-3.3,2.2-6.2,6-6.2c3.7,0,6,2.9,6,6.2c0,3.3-2.3,6.2-6,6.2C35.7,27.1,33.5,24.2,33.5,20.9z
			 M42.2,20.9c0-1.7-0.7-3.3-2.8-3.3c-2.1,0-2.8,1.6-2.8,3.3c0,1.7,0.7,3.3,2.8,3.3C41.5,24.2,42.2,22.6,42.2,20.9z"/>
		<path class="st1" d="M58.4,19.1v7.8h-3.2v-6.7c0-0.9,0-2.5-2-2.5c-2.5,0-2.5,2.4-2.5,4.1v5.1h-3.3V15h3.3v1.2
			c0.9-1.1,2.1-1.5,3.5-1.5C56.9,14.7,58.4,16.4,58.4,19.1z"/>
		<path class="st1" d="M64.9,17.5V23c0,0.7,0.3,1.4,1.5,1.4c0.5,0,1-0.1,1.5-0.3v2.6c-0.7,0.3-1.5,0.4-2.3,0.4c-2.1,0-3.9-1-3.9-3.8
			v-5.7h-1.9V15h1.9v-2l3.2-2.4V15h3v2.5L64.9,17.5L64.9,17.5z"/>
		<path class="st1" d="M73.2,26.5L68.6,15h3.6l2.7,7.7l2.9-7.8h3.6l-6.8,16.7H71L73.2,26.5z"/>
		<path class="st1" d="M83.1,23.5h3.1v3.3h-3.1V23.5z"/>
	</g>
</g>
</svg>
