<svg width="48" height="49" viewBox="0 0 48 49" fill="none" xmlns="http://www.w3.org/2000/svg">
<g clip-path="url(#clip0)">
<path d="M44.0124 12.8762H43.5258C43.2382 11.8678 42.8364 10.9003 42.3257 9.9855L42.6715 9.64015C43.0672 9.24529 43.285 8.71865 43.285 8.1572C43.285 7.59575 43.0672 7.0692 42.6712 6.67387L40.3669 4.37612C39.9712 3.97864 39.443 3.75982 38.8796 3.75982C38.3163 3.75982 37.788 3.97864 37.3943 4.37416L37.0488 4.71904C36.1318 4.20756 35.1623 3.80568 34.1528 3.51864V3.033C34.1529 1.87621 33.2103 0.935059 32.0515 0.935059H28.7936C27.6348 0.935059 26.6921 1.87621 26.6921 3.033V3.51864C25.6828 3.80559 24.7127 4.20756 23.7939 4.71941L23.45 4.37612C23.0541 3.97864 22.526 3.75982 21.9626 3.75992C21.3993 3.75992 20.8711 3.97883 20.4774 4.37425L18.1736 6.67434C17.7778 7.0692 17.5601 7.59584 17.5601 8.15729C17.5601 8.71875 17.7778 9.24529 18.1735 9.64015L18.5192 9.98541C18.0063 10.903 17.6043 11.8707 17.3183 12.8762H16.83C15.6712 12.8762 14.7285 13.8174 14.7285 14.9742V18.2295C14.7285 19.3863 15.6712 20.3274 16.83 20.3274H17.3183C17.6043 21.3329 18.0063 22.3006 18.5192 23.2182L18.1735 23.5635C17.7778 23.9584 17.56 24.485 17.56 25.0465C17.56 25.6078 17.7778 26.1345 18.1734 26.5293L20.4754 28.8275C20.8711 29.225 21.3992 29.4438 21.9626 29.4438H21.9626C22.526 29.4438 23.0542 29.225 23.4481 28.8295L23.7938 28.4842C24.7136 28.9966 25.6837 29.398 26.692 29.6834V30.1708C26.692 31.3275 27.6348 32.2687 28.7935 32.2687H32.0514C33.2101 32.2687 34.1528 31.3275 34.1528 30.1708V29.6834C35.1615 29.3979 36.1308 28.9967 37.0488 28.4846L37.3923 28.8275C37.788 29.225 38.3162 29.4438 38.8795 29.4438C39.4429 29.4438 39.9712 29.2249 40.3646 28.8299L42.6715 26.5293C43.0671 26.1344 43.2849 25.6077 43.2849 25.0464C43.2849 24.4849 43.0671 23.9584 42.6715 23.5635L42.3256 23.2182C42.8363 22.3034 43.238 21.3358 43.5257 20.3274H44.0123C45.171 20.3274 46.1137 19.3863 46.1137 18.2295V14.9742C46.1138 13.8174 45.1712 12.8762 44.0124 12.8762ZM32.278 30.1707C32.278 30.2933 32.1743 30.3968 32.0515 30.3968H28.7936C28.6708 30.3968 28.5671 30.2933 28.5671 30.1707V28.9556V23.0553C28.5671 22.6639 28.3231 22.3139 27.9556 22.1778C25.4365 21.2451 23.7439 18.8246 23.7439 16.1548C23.7439 14.039 24.7993 12.0556 26.5664 10.8497C26.6457 10.7956 26.7158 10.7515 26.7771 10.7152C26.7738 10.8369 26.7651 10.9526 26.7606 11.0129C26.7535 11.1079 26.7479 11.1829 26.7479 11.2573V15.6745C26.7479 17.702 28.3348 19.3952 30.3604 19.5294C30.4017 19.5321 30.4431 19.5321 30.4845 19.5294C32.5087 19.3953 34.0943 17.7021 34.0943 15.6745V11.2573C34.0943 11.1833 34.0888 11.1088 34.0819 11.0143C34.0774 10.9537 34.0687 10.8374 34.0655 10.7151C34.1266 10.7513 34.1963 10.7953 34.2754 10.8493C36.043 12.0555 37.0983 14.0389 37.0983 16.1547C37.0983 18.8242 35.4067 21.2448 32.889 22.1778C32.5216 22.314 32.2778 22.6639 32.2778 23.0552V28.9555V30.1707H32.278ZM44.2389 18.2295C44.2389 18.3499 44.133 18.4556 44.0124 18.4556H42.798C42.36 18.4556 41.9803 18.7584 41.8836 19.1848C41.5867 20.4945 41.0725 21.7329 40.3553 22.8656C40.1211 23.2355 40.1749 23.718 40.4848 24.0274L41.3459 24.8871C41.4018 24.9428 41.4101 25.0108 41.4101 25.0464C41.4101 25.0818 41.4018 25.1499 41.3462 25.2053L39.0373 27.5078C38.9845 27.5608 38.9223 27.5719 38.8796 27.5719C38.8369 27.5719 38.7749 27.5608 38.7201 27.5057L37.8591 26.6461C37.5487 26.3363 37.0648 26.283 36.6943 26.5173C35.8941 27.0236 35.0423 27.4253 34.1529 27.7221V23.6778C37.0614 22.3265 38.9734 19.3819 38.9734 16.1546C38.9734 13.4202 37.6127 10.8592 35.3337 9.30397C34.9846 9.06578 33.9229 8.34111 32.9943 8.87467C32.0825 9.39878 32.1734 10.6273 32.2121 11.152C32.2154 11.1976 32.2187 11.2359 32.2195 11.2573V15.6745C32.2195 16.699 31.4352 17.5579 30.4225 17.6566C29.4085 17.5578 28.6229 16.6989 28.6229 15.6745L28.6229 11.264C28.6237 11.2359 28.6271 11.1976 28.6304 11.1518C28.6695 10.6274 28.7611 9.39953 27.8501 8.87514C26.9219 8.34064 25.8586 9.06559 25.5088 9.30397C23.2296 10.8593 21.869 13.4203 21.869 16.1547C21.869 19.3824 23.7821 22.3273 26.6921 23.6782V27.7222C25.8025 27.4254 24.9497 27.0235 24.1472 26.517C23.9928 26.4196 23.8192 26.3722 23.6464 26.3722C23.4043 26.3722 23.1641 26.4657 22.9833 26.6463L22.1204 27.5078C22.0676 27.5609 22.0055 27.572 21.9627 27.572C21.92 27.572 21.858 27.5609 21.8033 27.5059L19.4993 25.2057C19.4434 25.15 19.435 25.0819 19.435 25.0465C19.435 25.0109 19.4434 24.9429 19.4993 24.8871L20.3603 24.0274C20.6702 23.718 20.7241 23.2355 20.4899 22.8656C19.7689 21.7269 19.2548 20.489 18.9619 19.1864C18.8659 18.7592 18.4858 18.4555 18.0472 18.4555H16.8301C16.7095 18.4555 16.6037 18.3498 16.6037 18.2294V14.9741C16.6037 14.8515 16.7073 14.748 16.8301 14.748H18.0472C18.4858 14.748 18.8658 14.4443 18.9619 14.017C19.2548 12.7144 19.7689 11.4765 20.4899 10.3379C20.7241 9.968 20.6702 9.48544 20.3603 9.17603L19.4992 8.3164C19.4434 8.26062 19.435 8.19267 19.435 8.15711C19.435 8.12154 19.4434 8.05359 19.4993 7.99772L21.8052 5.69557C21.858 5.6426 21.9201 5.63146 21.9628 5.63146C22.0056 5.63146 22.0676 5.6426 22.1224 5.69753L22.9834 6.55717C23.2935 6.86667 23.7768 6.9203 24.1472 6.68651C25.2864 5.96754 26.5277 5.45326 27.8363 5.15817C28.2638 5.06177 28.5673 4.68263 28.5673 4.24528V3.033C28.5673 2.91039 28.6709 2.80688 28.7938 2.80688H32.0517C32.1745 2.80688 32.2782 2.91039 32.2782 3.033V4.24547C32.2782 4.68291 32.5816 5.06196 33.009 5.15836C34.3189 5.45373 35.5588 5.96773 36.6945 6.68623C37.0651 6.92058 37.5488 6.86723 37.8592 6.55745L38.7222 5.69585C38.775 5.64288 38.8371 5.63174 38.8798 5.63174C38.9225 5.63174 38.9846 5.64288 39.0397 5.69819L41.3461 7.998C41.402 8.05378 41.4103 8.12173 41.4103 8.15729C41.4103 8.19286 41.402 8.26081 41.346 8.31668L40.485 9.17631C40.1751 9.48572 40.1213 9.96828 40.3555 10.3382C41.0726 11.4709 41.5869 12.7092 41.8838 14.0189C41.9805 14.4454 42.3602 14.7482 42.7981 14.7482H44.0126C44.1354 14.7482 44.239 14.8517 44.239 14.9743V18.2295H44.2389Z" fill="#335EEA"/>
<path d="M35.8854 42.1453C35.5193 42.5107 35.5193 43.1034 35.8854 43.4689C36.0685 43.6516 36.3084 43.7431 36.5483 43.7431C36.7882 43.7431 37.0281 43.6516 37.2112 43.4689L37.2138 43.4663C37.5799 43.1008 37.5786 42.5095 37.2124 42.144C36.8462 41.7786 36.2515 41.78 35.8854 42.1453Z" fill="#335EEA"/>
<path d="M40.2281 33.0787L32.7854 36.8945C32.1545 36.2422 31.2705 35.8352 30.2926 35.8352H25.1931C24.9075 35.8352 24.8378 35.8126 24.8331 35.811C24.7918 35.7893 24.6611 35.6667 24.5562 35.5682L24.5097 35.5246C20.384 31.6474 16.899 31.8931 12.9358 33.4546C12.2945 33.7073 12.2822 33.7078 11.6382 33.7352L10.4851 33.7361C10.1566 32.7467 9.22177 32.0308 8.12202 32.0308H4.37249C3.00124 32.0308 1.88574 33.1457 1.88574 34.5161V44.3402C1.88574 45.7091 3.00124 46.8228 4.37249 46.8228H8.12202C9.22168 46.8228 10.1564 46.1077 10.485 45.1196H12.5943C12.7806 45.1196 12.7806 45.1196 12.9973 45.1805C13.076 45.2027 13.1718 45.2296 13.2956 45.2628L22.9979 47.8542C23.4256 47.9695 23.8178 48.083 24.1972 48.1927C25.4403 48.5523 26.4852 48.8546 27.5743 48.8546C28.8052 48.8546 30.0922 48.4684 31.785 47.3422C31.7932 47.3367 31.8014 47.3311 31.8094 47.3254L33.6617 46.0068C34.0833 45.7067 34.1813 45.1223 33.8807 44.7014C33.58 44.2804 32.9945 44.1826 32.5732 44.4828L30.7332 45.7926C28.2766 47.4238 27.2335 47.1222 24.719 46.3948C24.3316 46.2828 23.9311 46.1669 23.4848 46.0466L13.7818 43.4551C13.6681 43.4246 13.579 43.3995 13.5059 43.379C13.1519 43.2794 13.0195 43.2479 12.5944 43.2479H10.6115V35.6087H11.6246C11.6381 35.6087 11.6514 35.6084 11.6649 35.6078L11.7184 35.6056C12.5043 35.5721 12.7241 35.5506 13.6243 35.1958C17.105 33.8245 19.7918 33.6616 23.2258 36.8889L23.2722 36.9324C23.8591 37.483 24.197 37.7072 25.1932 37.7072H30.2927C30.8912 37.7072 31.4131 38.0389 31.6851 38.5276C31.688 38.533 31.6914 38.5381 31.6944 38.5436C31.8159 38.7679 31.8851 39.0245 31.8851 39.2971C31.8851 40.1722 31.1708 40.8842 30.2928 40.8842H22.0283C21.5106 40.8842 21.0908 41.3032 21.0908 41.8201C21.0908 42.337 21.5106 42.756 22.0283 42.756H30.2928C32.2047 42.756 33.76 41.2044 33.76 39.2971C33.76 39.0378 33.7304 38.7855 33.676 38.5425L41.0847 34.7441C41.7859 34.3847 42.7448 34.4232 43.2208 35.1944C43.642 35.8742 43.4103 36.7777 42.6824 37.2958L39.4324 39.6066C39.0106 39.9064 38.9122 40.4908 39.2126 40.9119C39.3955 41.1682 39.684 41.305 39.977 41.305C40.1651 41.305 40.3551 41.2485 40.52 41.1314L43.7703 38.8203C45.3139 37.7217 45.7632 35.7396 44.8161 34.2112C43.8849 32.7023 41.9126 32.2154 40.2281 33.0787ZM8.73644 44.3402C8.73644 44.6714 8.45511 44.951 8.12202 44.951H4.37249C4.04081 44.951 3.76069 44.6713 3.76069 44.3402V34.5162C3.76069 34.1779 4.03519 33.9027 4.37249 33.9027H8.12202C8.45511 33.9027 8.73644 34.1835 8.73644 34.5162V44.3402Z" fill="#335EEA"/>
</g>
<defs>
<clipPath id="clip0">
<rect width="48" height="47.9198" fill="white" transform="translate(0 0.935059)"/>
</clipPath>
</defs>
</svg>
