<svg width="25" height="24" viewBox="0 0 25 24" fill="none" xmlns="http://www.w3.org/2000/svg">
<path d="M22.5419 5.67186C21.772 6.00865 20.9556 6.22975 20.1198 6.32786C21.0001 5.80727 21.6593 4.98736 21.9748 4.02086C21.1471 4.50706 20.2415 4.84934 19.2973 5.03286C18.6634 4.3612 17.8234 3.91562 16.9078 3.76522C15.9922 3.61483 15.0521 3.76804 14.2334 4.20109C13.4146 4.63414 12.763 5.32281 12.3795 6.16028C11.9961 6.99774 11.9023 7.93718 12.1127 8.83286C10.4376 8.75008 8.79878 8.31965 7.30227 7.56944C5.80576 6.81924 4.48493 5.76598 3.42531 4.47786C2.88652 5.39647 2.72154 6.48409 2.96401 7.51905C3.20647 8.554 3.83813 9.45839 4.73023 10.0479C4.06055 10.0271 3.40557 9.84811 2.81978 9.52586V9.57786C2.82041 10.5417 3.15752 11.4757 3.77393 12.2214C4.39034 12.967 5.24809 13.4784 6.20167 13.6689C5.58055 13.8354 4.92939 13.86 4.29728 13.7409C4.56642 14.5704 5.09048 15.2959 5.79619 15.8159C6.5019 16.3359 7.35396 16.6243 8.23323 16.6409C6.46566 18.0133 4.22074 18.6348 1.99121 18.3689C3.91821 19.5946 6.1603 20.2455 8.45021 20.2439C10.0281 20.2561 11.5927 19.9575 13.0531 19.3654C14.5136 18.7732 15.8407 17.8995 16.9573 16.7948C18.074 15.6901 18.958 14.3765 19.5579 12.9303C20.1578 11.4842 20.4617 9.93437 20.4518 8.37086C20.4518 8.19086 20.4518 8.00986 20.4387 7.83186C21.2642 7.2416 21.9768 6.51014 22.5429 5.67186H22.5419Z" fill="#F1F4F8"/>
</svg>
