<svg width="25" height="24" viewBox="0 0 25 24" fill="none" xmlns="http://www.w3.org/2000/svg">
<path d="M21.7548 6.51346C22.0715 8.32526 22.225 10.1615 22.2134 12.0005C22.225 13.8394 22.0715 15.6757 21.7548 17.4875C21.6358 17.9634 21.3934 18.4 21.0518 18.7538C20.7101 19.1075 20.2812 19.366 19.8077 19.5035C18.0909 19.9785 12.1642 19.9785 12.1642 19.9785C12.1642 19.9785 6.24445 19.9785 4.52063 19.5035C4.04692 19.3665 3.61772 19.1081 3.276 18.7543C2.93428 18.4005 2.69204 17.9636 2.57354 17.4875C2.25923 15.6755 2.10811 13.8392 2.12197 12.0005C2.11043 10.1615 2.26391 8.32526 2.58058 6.51346C2.69955 6.03751 2.94195 5.60088 3.2836 5.24715C3.62524 4.89341 4.0542 4.63492 4.52767 4.49746C6.24546 4.02246 12.1682 4.02246 12.1682 4.02246C12.1682 4.02246 18.0909 4.02246 19.8117 4.49746C20.2847 4.63507 20.7131 4.89367 21.054 5.24744C21.395 5.60121 21.6367 6.03776 21.7548 6.51346ZM10.1587 15.4905L16.1861 12.0005L10.1587 8.50946V15.4905Z" fill="#F1F4F8"/>
</svg>
