<svg width="76" height="23" viewBox="0 0 76 23" fill="none" xmlns="http://www.w3.org/2000/svg">
<path d="M3.88 10.0201V16.6001H1.5V0.870117H12.5V2.97012H4.38H3.88V3.47012V6.90012V7.40012H4.38H11.49V9.52012H4.38H3.88V10.0201Z" fill="#003CC5" stroke="#003CC5"/>
<path d="M19.7368 7.72C20.1784 7.71499 20.6145 7.79895 21.0199 7.96491L22.1241 5.91225C21.6207 5.65029 21.0612 5.50823 20.4897 5.50004C19.9248 5.50796 19.3752 5.68484 18.9116 6.00797C18.4464 6.33225 18.0894 6.78886 17.8869 7.31855L16.9199 7.14V5.77H14.6299V16.6M19.7368 7.72C19.7379 7.72 19.7389 7.72 19.7399 7.72V8.22L19.7337 7.72004C19.7348 7.72003 19.7358 7.72001 19.7368 7.72ZM19.7368 7.72C18.8663 7.72068 18.1171 8.01028 17.6033 8.67389C17.1075 9.31423 16.8899 10.2289 16.8899 11.36V16.6M16.8899 16.6H14.6299M16.8899 16.6V17.1H14.6299M16.8899 16.6H17.3899L14.6299 17.1M14.6299 16.6V17.1M14.6299 16.6H14.1299V5.77L14.6299 17.1" fill="#003CC5" stroke="#003CC5"/>
<path d="M28.29 15.0202L28.2925 15.0202C29.4753 15.0144 30.3219 14.5324 30.8529 13.7696C31.3653 13.0336 31.55 12.0868 31.55 11.1802C31.55 10.2638 31.3748 9.31264 30.8648 8.57665C30.3343 7.81118 29.484 7.34017 28.29 7.34017C27.109 7.34017 26.2606 7.81268 25.7277 8.57497C25.2142 9.30962 25.03 10.2601 25.03 11.1802C25.03 12.0739 25.2062 13.0228 25.714 13.763C26.2416 14.5321 27.0903 15.0202 28.29 15.0202ZM22.79 11.1802C22.79 9.72148 23.3695 8.32254 24.401 7.29109C25.4324 6.25964 26.8313 5.68018 28.29 5.68018C29.7487 5.68018 31.1477 6.25964 32.1791 7.29109C33.2106 8.32254 33.79 9.72148 33.79 11.1802C33.79 12.6389 33.2106 14.0378 32.1791 15.0693C31.1477 16.1007 29.7487 16.6802 28.29 16.6802C26.8313 16.6802 25.4324 16.1007 24.401 15.0693C23.3695 14.0378 22.79 12.6389 22.79 11.1802Z" fill="#003CC5" stroke="#003CC5"/>
<path d="M46.7498 9.3502V16.6002H44.5098V10.3802C44.5098 10.3704 44.5098 10.3605 44.5098 10.3503C44.51 9.93345 44.5103 9.20178 44.2049 8.57009C44.0417 8.23236 43.7886 7.91513 43.4051 7.68661C43.0242 7.45968 42.5484 7.3402 41.9698 7.3402C41.2719 7.3402 40.7031 7.514 40.257 7.84236C39.8138 8.16852 39.5347 8.61556 39.3577 9.08878C39.0195 9.9929 39.0197 11.1004 39.0198 11.9274C39.0198 11.9418 39.0198 11.956 39.0198 11.9702V16.6102H36.7598V5.7702H39.0198V6.4902V7.87382L39.9043 6.80983C40.2724 6.36699 40.74 6.01743 41.2689 5.78966C41.7978 5.56189 42.3731 5.46235 42.9478 5.49918L42.9628 5.50014L42.9779 5.5002C44.2323 5.50483 45.159 5.88193 45.773 6.51174C46.3885 7.1431 46.7498 8.08993 46.7498 9.3502Z" fill="#003CC5" stroke="#003CC5"/>
<path d="M55.2398 15.1801H55.2469L55.254 15.1799C55.5823 15.1706 55.9087 15.1332 56.2298 15.0684V16.6249C55.6529 16.7911 55.0545 16.8738 54.4529 16.8701H54.4498C53.4676 16.8701 52.6122 16.6295 52.0103 16.1236C51.4235 15.6303 51.0098 14.8279 51.0098 13.5501V7.8101V7.3101H50.5098H49.0898V5.7701H50.5098H51.0098V5.2701V3.50196L53.2498 1.8427V5.2701V5.7701H53.7498H56.2298V7.3101H53.7498H53.2498V7.8101V7.8201V13.2901C53.2498 13.6969 53.3322 14.1839 53.665 14.5727C54.0105 14.9765 54.5432 15.1801 55.2398 15.1801Z" fill="#003CC5" stroke="#003CC5"/>
<path d="M62.4727 16.93L62.5493 16.7435L62.4751 16.556L58.2059 5.77002H60.7132L63.2573 13.1823L63.7132 14.5105L64.1993 13.1931L66.9387 5.77002H69.4277L63.0435 21.5H60.5961L62.4727 16.93Z" fill="#003CC5" stroke="#003CC5"/>
<path d="M72.4399 14.3403H74.5799V16.6003H72.4399V14.3403Z" fill="#003CC5" stroke="#003CC5"/>
<path d="M1 0.370117H13V3.47012H4.38V6.90012H11.99V10.0201H4.38V17.1001H1V0.370117Z" fill="#003CC5" stroke="#003CC5" stroke-width="0.3" stroke-miterlimit="10"/>
<path d="M22.7899 5.73L21.2299 8.63C20.7818 8.35566 20.2653 8.21354 19.7399 8.22C18.2299 8.22 17.3899 9.2 17.3899 11.36V17.1H14.1299V5.27H17.4199V7.14C17.6582 6.51669 18.0783 5.97938 18.6257 5.59779C19.1731 5.21619 19.8226 5.00792 20.4899 5C21.3119 5.01039 22.1123 5.26444 22.7899 5.73Z" fill="#003CC5" stroke="#003CC5" stroke-width="0.3" stroke-miterlimit="10"/>
<path d="M22.29 11.1802C22.29 9.58888 22.9222 8.06275 24.0474 6.93754C25.1726 5.81232 26.6987 5.18018 28.29 5.18018C29.8813 5.18018 31.4075 5.81232 32.5327 6.93754C33.6579 8.06275 34.29 9.58888 34.29 11.1802C34.29 12.7715 33.6579 14.2976 32.5327 15.4228C31.4075 16.548 29.8813 17.1802 28.29 17.1802C26.6987 17.1802 25.1726 16.548 24.0474 15.4228C22.9222 14.2976 22.29 12.7715 22.29 11.1802ZM31.05 11.1802C31.05 9.45017 30.38 7.84017 28.29 7.84017C26.23 7.84017 25.53 9.45017 25.53 11.1802C25.53 12.8602 26.2 14.5202 28.29 14.5202C30.35 14.5102 31.05 12.8802 31.05 11.1802Z" fill="#003CC5" stroke="#003CC5" stroke-width="0.3" stroke-miterlimit="10"/>
<path d="M47.2498 9.3502V17.1002H44.0098V10.3802C44.0098 9.5202 44.0098 7.8402 41.9698 7.8402C39.5198 7.8402 39.5198 10.2602 39.5198 11.9702V17.1102H36.2598V5.2702H39.5198V6.4902C39.9383 5.98676 40.4699 5.58937 41.0711 5.33043C41.6724 5.07149 42.3264 4.95834 42.9798 5.0002C45.6898 5.0102 47.2498 6.6402 47.2498 9.3502Z" fill="#003CC5" stroke="#003CC5" stroke-width="0.3" stroke-miterlimit="10"/>
<path d="M53.7498 7.8201V13.2901C53.7498 13.9901 54.0398 14.6801 55.2398 14.6801C55.7465 14.6658 56.2483 14.5782 56.7298 14.4201V16.9901C55.9972 17.2464 55.226 17.3749 54.4498 17.3701C52.3398 17.3701 50.5098 16.3401 50.5098 13.5501V7.8101H48.5898V5.2701H50.5098V3.2501L53.7498 0.850098V5.2701H56.7298V7.8101H53.7498V7.8201Z" fill="#003CC5" stroke="#003CC5" stroke-width="0.3" stroke-miterlimit="10"/>
<path d="M62.0102 16.74L57.4702 5.27002H61.0702L63.7302 13.02L66.5902 5.27002H70.1702L63.3802 22H59.8502L62.0102 16.74Z" fill="#003CC5" stroke="#003CC5" stroke-width="0.3" stroke-miterlimit="10"/>
<path d="M71.9399 13.8403H75.0799V17.1003H71.9399V13.8403Z" fill="#003CC5" stroke="#003CC5" stroke-width="0.3" stroke-miterlimit="10"/>
</svg>
