<?xml version="1.0" encoding="utf-8"?>
<!-- Generator: Adobe Illustrator 24.0.2, SVG Export Plug-In . SVG Version: 6.00 Build 0)  -->
<svg version="1.1" id="Layer_1" xmlns="http://www.w3.org/2000/svg" xmlns:xlink="http://www.w3.org/1999/xlink" x="0px" y="0px"
	 viewBox="0 0 2500 544" style="enable-background:new 0 0 2500 544;" xml:space="preserve">
<style type="text/css">
	.st0{fill:#869AB8;}
</style>
<title>Imported Layers</title>
<g id="Page-1">
	<g id="Imported-Layers">
		<path id="Fill-1" class="st0" d="M163.3,543.6c-81.6,0-161.5-58.7-161.5-191.3c0-133,79.9-190.8,161.5-190.8
			c40.2,0,71.7,10.4,94.1,25l-24.6,54c-15.1-10.8-37.6-17.7-60-17.7c-49.2,0-94.1,38.9-94.1,128.7S124.9,481,172.8,481
			c22.5,0,44.9-6.9,60-17.7l24.6,55.3C234.1,534.1,203.4,543.6,163.3,543.6"/>
		<path id="Fill-2" class="st0" d="M444.4,543.6c-104.1,0-161.5-82.5-161.5-191.3s57-190.8,161.5-190.8
			c104.1,0,161.5,81.6,161.5,190.8C605.8,461.1,548.4,543.6,444.4,543.6L444.4,543.6z M444.4,220.6c-57.9,0-86.3,51.8-86.3,130.8
			s28.5,131.3,86.3,131.3s86.3-52.2,86.3-131.3S502.2,220.6,444.4,220.6L444.4,220.6z"/>
		<path id="Fill-3" class="st0" d="M706,102.3c-24.6,0-44.5-19-44.5-42.3s19.9-42.3,44.5-42.3s44.5,19,44.5,42.3
			S730.2,102.3,706,102.3z M668.4,168.8h75.1v367h-75.1V168.8z"/>
		<path id="Fill-4" class="st0" d="M1038,535.8V291c0-42.7-25.9-69.5-76.9-69.5c-27.2,0-52.2,4.7-67.4,10.8v303.9h-74.3V187.4
			c36.7-15.1,83.8-25.9,141.2-25.9c102.8,0,152.4,44.9,152.4,122.6v252.1H1038"/>
		<path id="Fill-5" class="st0" d="M1310.4,543.6c-47.5,0-94.6-11.7-123.5-25.9V1.3h74.3v177c17.7-8.2,46.2-15.1,71.7-15.1
			c94.6,0,158.9,68.2,158.9,180.5C1491.8,482.3,1420.1,543.6,1310.4,543.6L1310.4,543.6z M1319.9,221.5c-20.3,0-44.5,4.7-58.7,12.1
			v240.9c10.8,4.7,31.9,9.5,53.1,9.5c59.1,0,102.8-41,102.8-134.7C1417.5,269,1379.5,221.5,1319.9,221.5L1319.9,221.5z"/>
		<path id="Fill-6" class="st0" d="M1693.8,543.6c-105.3,0-158.9-42.7-158.9-115.3c0-102.3,108.8-120.5,219.8-126.5v-23.3
			c0-46.2-30.7-62.6-77.7-62.6c-34.5,0-76.9,10.8-101.5,22.5l-19-50.9c29.4-13,79-25.9,128.2-25.9c87.6,0,141.2,34.1,141.2,124.8
			v231.4C1799.6,531.9,1745.6,543.6,1693.8,543.6L1693.8,543.6z M1755.1,351.4c-75.1,3.9-149.8,10.4-149.8,75.6
			c0,38.9,29.8,62.6,86.3,62.6c23.7,0,51.8-3.9,63.5-9.5V351.4z"/>
		<path id="Fill-7" class="st0" d="M1993.5,543.6c-42.7,0-87.6-11.7-114.4-25.9l25-57c19,11.7,59.1,23.7,87.2,23.7
			c40.2,0,66.9-19.9,66.9-50.5c0-33.2-28.1-46.2-65.2-60c-49.2-18.6-104.1-41-104.1-109.7c0-60.4,47.1-102.8,128.7-102.8
			c44.5,0,81.2,10.8,107.1,25.9l-23.3,51.8c-16.4-10.4-49.2-21.6-75.6-21.6c-38.9,0-60.4,20.3-60.4,47.1c0,33.2,27.2,44.9,63.5,58.7
			c50.9,19,107.5,40.2,107.5,111.8C2135.9,500.4,2085.4,543.6,1993.5,543.6"/>
		<path id="Fill-8" class="st0" d="M2498.2,350.6l-243.9,34.1c7.3,66.1,50.5,99.3,112.3,99.3c36.7,0,76.4-9.1,101.5-22.5l21.6,55.7
			c-28.5,15.1-77.7,25.9-128.2,25.9c-115.7,0-180.5-74.3-180.5-191.3c0-112.3,62.6-190.8,165.4-190.8c95.4,0,152,62.6,152,161.5
			C2499,331.6,2499,341.1,2498.2,350.6z M2345.8,215.9c-57,0-94.6,43.6-95.8,120l177.9-24.6C2426.9,247.4,2394.6,215.9,2345.8,215.9
			L2345.8,215.9z"/>
	</g>
</g>
</svg>
