<svg width="48" height="48" viewBox="0 0 48 48" fill="none" xmlns="http://www.w3.org/2000/svg">
<g clip-path="url(#clip0)">
<path d="M38.8437 19.7402L36.656 20.825C36.656 3.58386 36.6687 4.43398 36.6299 4.23307C36.5032 3.57514 35.925 3.09392 35.2497 3.09392C35.0909 3.09392 1.51743 3.09364 1.39733 3.09439C0.614058 3.09936 0 3.73957 0 4.50016V29.8125C0 30.5891 0.62962 31.2187 1.40624 31.2187H16.9686V33.1874C16.9686 34.753 18.0711 36.0653 19.5403 36.3906L18.394 43.2688C18.2511 44.1256 18.913 44.9062 19.7811 44.9062H25.4061C26.0877 44.9062 26.6713 44.4173 26.7906 43.746L28.0609 36.6005L38.8438 41.9473C39.7751 42.4092 40.8748 41.7311 40.8748 40.6875V21.0001C40.8747 19.9572 39.7765 19.2774 38.8437 19.7402ZM30.5837 5.9064L18.2833 14.0615L6.05077 5.9064H30.5837ZM2.81248 7.12777L17.5011 16.9202C17.9724 17.2343 18.5862 17.2352 19.0582 16.9221L33.8435 7.1197V22.2196L27.7952 25.2187H20.2498C18.4721 25.2187 17.0209 26.6403 16.971 28.4062H2.81248V7.12777ZM20.2498 33.6562C19.9914 33.6562 19.7811 33.4459 19.7811 33.1874V28.5C19.7811 28.2415 19.9914 28.0312 20.2498 28.0312H26.7185V33.6562H20.2498ZM21.4411 42.0936L22.3786 36.4687H25.2277L24.2278 42.0936H21.4411ZM38.0622 38.4204L29.531 34.1901V27.4972L38.0622 23.2669V38.4204Z" fill="#003CC5"/>
<path d="M45.6572 26.5071L47.1572 25.8509C47.8688 25.5396 48.1933 24.7104 47.8819 23.9989C47.5707 23.2875 46.7415 22.9627 46.03 23.2742L44.53 23.9305C43.8184 24.2417 43.494 25.071 43.8053 25.7824C44.1168 26.4945 44.9464 26.8184 45.6572 26.5071Z" fill="#003CC5" fill-opacity="0.5"/>
<path d="M47.1572 35.8366L45.6572 35.1804C44.9457 34.8691 44.1165 35.1935 43.8053 35.9051C43.494 36.6166 43.8184 37.4458 44.53 37.757L46.03 38.4133C46.7415 38.7246 47.5708 38.4 47.8819 37.6886C48.1933 36.977 47.8688 36.1479 47.1572 35.8366Z" fill="#003CC5" fill-opacity="0.5"/>
<path d="M46.5933 29.4375H45.0933C44.3166 29.4375 43.687 30.0671 43.687 30.8438C43.687 31.6204 44.3166 32.25 45.0933 32.25H46.5933C47.3699 32.25 47.9995 31.6204 47.9995 30.8438C47.9995 30.0671 47.3699 29.4375 46.5933 29.4375Z" fill="#003CC5" fill-opacity="0.5"/>
</g>
<defs>
<clipPath id="clip0">
<rect width="48" height="48" fill="white"/>
</clipPath>
</defs>
</svg>
