<?xml version="1.0" encoding="utf-8"?>
<!-- Generator: Adobe Illustrator 24.0.2, SVG Export Plug-In . SVG Version: 6.00 Build 0)  -->
<svg version="1.1" id="Layer_1" xmlns="http://www.w3.org/2000/svg" xmlns:xlink="http://www.w3.org/1999/xlink" x="0px" y="0px"
	 viewBox="0 0 2500 632" style="enable-background:new 0 0 2500 632;" xml:space="preserve">
<style type="text/css">
	.st0{fill:#869AB8;}
</style>
<path class="st0" d="M574.5,222.8c27.1,0,53.1-22.6,57.6-50.4c5.3-27.1-13-49.7-40.1-49.7c-27.1,0-53.1,22.6-57.7,49.7
	C529.1,200.2,546.7,222.8,574.5,222.8z M2414,303.3h60.6c8.3,0,13.2-3.4,15-11.1c2.9-12,5.9-24,9-36c1.8-7-2.3-12.3-10-12.3h-59.8
	c4.3-17.1,21.1-72.8,21.1-109.1c0-72.5-61.6-134.1-148.9-134.1c-98.6,0-162.8,66.2-162.8,159.3c0,27.2,10.1,58.8,22.7,78.5
	c-5.4-0.3-10.8-0.5-16.2-0.5c-74.9,0-122.1,40.7-122.1,99.8c0,55.5,43.8,77.1,85,91.5c36.6,12.8,70.3,18.7,70.3,47.3
	c0,19.3-18.5,30.6-54.8,30.6c-43.1,0-66.7-20.3-72.7-28c4.1-3.2,10.1-10.8,10.1-23.6c0-17.8-12.5-32.3-35.7-32.3
	c-19.6,0-36.2,16-40.4,37.1c-31.5,25.8-66,42.5-114.8,42.5c-48.1,0-73-25-73-78.2c11.3,3.4,40.6,7.6,60,7.6
	c81.4,0,136.9-37,136.9-111c0-39.8-35-81.6-104.1-81.6h-0.2c-91,0-141.9,57.6-164.2,121c-6.2-1.5-12.5-3-18.7-4.4
	c5-14.1,8.5-30.4,8.5-48.4c0-31.3-19.4-68.2-71.3-68.2c-36.1,0-70.4,23.7-94.2,59.1c5.9-23.1,9.8-38.5,10.1-39.6
	c1.5-6.1-1-12.8-10.4-12.8h-53.2c-7.6,0-12.9,2.7-15.1,11.3c-1.4,5.8-19.7,77.5-37.5,147.4c-11.2,43.6-69.2,97.8-142.2,97.8
	c-48.1,0-73-26.6-73-79.9c12.6,5,40.6,9.2,60,9.2c84.7,0,136.9-37,136.9-111c0-39.8-35-81.6-104.1-81.6h-0.1
	c-102.4,0-165.2,79.6-175.8,169.8c-4.4,37.5-36.1,89-70.4,89c-16.7,0-26-10.5-26-28.3c0-15.4,10.8-53,22.7-100.2
	c4-15.8,10-39.9,16.7-66.5h55.7c8.3,0,13.2-3.4,15-11.1c2.7-11.2,7.6-30.6,8.9-36c1.8-7-2.2-12.3-10-12.3h-54.8
	c0,0,25.2-100.6,25.8-103.2c2.4-10.2-6.1-16.1-15.1-14.2c0,0-42.3,8.3-50.2,9.9c-7.9,1.6-14,5.9-16.9,17.3l-22.4,90.2h-44
	c-8.3,0-13.2,3.4-15,11.1c-2.9,12-5.9,24-8.9,36c-1.8,7,2.2,12.3,10,12.3h43.1c-0.3,1.2-15.6,59.3-27.9,111.3
	c-5.8,25-25.3,83.5-57.2,83.5c-19,0-27.1-9.6-27.1-30.2c0-32.5,31.9-113.7,31.9-150.6c0-49.2-26.4-77.8-80.5-77.8
	c-34.1,0-69.5,22-84.5,41.4c0,0,4.5-15.8,6.1-21.9c1.7-6.4-1.8-12.7-10.2-12.7h-52.9c-11.3,0-14.4,6-16,12.6
	c-0.7,2.7-19.7,77.5-38,149.4c-12.5,49.2-42.9,90.3-75.5,90.3c-16.7,0-24.2-10.5-24.2-28.3c0-15.4,10-53.4,21.8-100.6
	c14.4-57.4,27.2-104.7,28.6-110.2c1.8-7.1-1.4-13.2-10.5-13.2h-53.2c-9.6,0-13.1,5.1-15.1,12.1c0,0-15,56.7-30.8,119.9
	c-11.5,45.8-24.2,92.5-24.2,114.4c0,39.1,17.6,68.6,65.9,68.6c37.3,0,66.8-18.9,89.3-43c-3.3,13-5.4,21.3-5.6,22.1
	c-1.9,7.5,0.4,14,9.2,14h54.5c9.5,0,13.1-3.8,15.1-12.1c1.9-7.9,42.6-167.9,42.6-167.9c10.8-43,37.4-71.5,74.8-71.5
	c17.7,0,33.1,11.7,31.3,34.6c-2,25.1-32.3,115.4-32.3,155c0,30,11.1,68.8,67.5,68.8c38.5,0,66.8-18.4,87.4-42.2
	c7.5,25.3,27.5,42.2,64.2,42.2c60.9,0,97.6-36.1,119.2-72.4c17.9,42.1,59.8,72.4,121.3,72.4c62.6,0,111.1-26.4,145.5-62.3l-10.7,42
	c-1.9,7.6,1.3,13.5,10.2,13.5h53.9c7.4,0,12.6-3.8,14.6-11.5c0.9-3.8,8.7-33.9,19.7-76.7c21-81.9,54.9-166.8,105.7-166.8
	c17.9,0,25.3,10,25.3,25.8c0,7.4-2.2,13.9-4,17.3c-24.6-4.9-44.4,7.3-44.4,33.6c0,17.1,18,32.7,42.4,32.7c18.6,0,34-4.6,46.2-12.8
	c12.1,2.5,24.1,5.1,36.1,7.9c-1.8,11.9-2.8,23.9-2.8,35.9c0,65.7,46.9,121.4,131,121.4c65.9,0,111.1-24.1,150.2-55
	c18.8,30.7,66.1,55.5,128.3,55.5c85.2,0,133.5-44.3,133.5-102.9c0-53-43.5-72.5-88.4-88.7c-36.5-13.2-66.9-20.3-66.9-46.1
	c0-21.1,16.6-30.8,45.1-30.8c18.5,0,32.4,4,39.8,6.1c7.4,18.4,22.6,38.8,48.5,38.8c22,0,31.9-17.4,31.9-33.4
	c0-45.6-75.9-50.4-75.9-148.1c0-60.8,34.4-110.9,105.6-110.9c49.5,0,81.8,31.4,81.8,82c0,41.8-25.3,116.1-25.3,116.1h-43.1
	c-8.3,0-13.2,3.4-15,11.1c-2.9,12-5.9,24-9,36c-1.8,7,2.2,12.3,10,12.3h42c0,0-43.5,160.3-43.5,189.4c0,39.1,22.1,68.6,70.4,68.6
	c68.4,0,111.1-44.4,129.6-109c1.4-5-1.4-9.1-6.4-9.1h-26.1c-5.2,0-8.2,3-9.5,8.1c-5.9,22.9-20.5,47.1-49.2,47.1
	c-16.7,0-26-10.5-26-28.3c0-15.4,10.2-51.4,22.7-100.2C2403.3,346.6,2414,303.3,2414,303.3L2414,303.3z M1875,300.6
	c24.2,0,35.7,16.1,35.7,35.2c0,32.4-25.1,52.2-64.5,52.2c-14.1,0-33.7-3.3-45.4-7.2C1805.7,351,1827.3,300.6,1875,300.6z
	 M1306.4,300.6c26.5,0,35.6,16.1,35.6,35.2c0,32.4-25.1,52.2-64.4,52.2c-14.1,0-33.7-3.3-45.4-7.2
	C1237.1,351,1256.2,300.6,1306.4,300.6z M260.4,0C87.9,0,1,123.7,1,226.8c0,62.4,23.6,118,74.3,138.7c8.3,3.4,15.8,0.1,18.2-9.1
	c1.7-6.4,5.6-22.4,7.4-29.1c2.4-9.1,1.5-12.3-5.2-20.2c-14.6-17.2-24-39.6-24-71.2c0-91.7,68.6-173.9,178.7-173.9
	c97.5,0,151,59.6,151,139.1c0,104.7-46.3,193-115.1,193c-38,0-66.4-31.4-57.3-69.9c10.9-46,32-95.6,32-128.8
	c0-29.7-15.9-54.5-49-54.5c-38.8,0-70,40.2-70,94c0,34.3,11.6,57.4,11.6,57.4S114,460.6,107.1,490.1c-13.9,58.7-2.1,130.7-1.1,138
	c0.6,4.3,6.1,5.3,8.6,2.1c3.6-4.7,49.8-61.8,65.5-118.8c4.4-16.2,25.5-99.8,25.5-99.8c12.6,24.1,49.5,45.2,88.7,45.2
	c116.7,0,195.9-106.4,195.9-248.8C490.2,100.3,399,0,260.4,0z"/>
</svg>
