<svg width="64" height="64" viewBox="0 0 64 64" fill="none" xmlns="http://www.w3.org/2000/svg">
<path d="M60.25 41.5745V5.625C60.25 2.52338 57.7266 0 54.625 0H13.25C10.1484 0 7.625 2.52338 7.625 5.625V7.625H5.625C2.52338 7.625 0 10.1484 0 13.25C0 16.3516 2.52338 18.875 5.625 18.875H7.625V26.375H5.625C2.52338 26.375 0 28.8984 0 32C0 35.1016 2.52338 37.625 5.625 37.625H7.625V45.125H5.625C2.52338 45.125 0 47.6484 0 50.75C0 53.8516 2.52338 56.375 5.625 56.375H7.625V58.25C7.625 59.7444 8.19963 61.1684 9.243 62.2599C10.3158 63.382 11.7389 64 13.25 64H50.875C58.1121 64 64 58.0561 64 50.75C64 47.1821 62.5682 43.9427 60.25 41.5745ZM5.625 15.125C4.59113 15.125 3.75 14.2839 3.75 13.25C3.75 12.2161 4.59113 11.375 5.625 11.375H9.5C10.5339 11.375 11.375 12.2161 11.375 13.25C11.375 14.2839 10.5339 15.125 9.5 15.125H5.625ZM5.625 33.875C4.59113 33.875 3.75 33.0339 3.75 32C3.75 30.9661 4.59113 30.125 5.625 30.125H9.5C10.5339 30.125 11.375 30.9661 11.375 32C11.375 33.0339 10.5339 33.875 9.5 33.875H5.625ZM9.5 52.625H5.625C4.59113 52.625 3.75 51.7839 3.75 50.75C3.75 49.7161 4.59113 48.875 5.625 48.875H9.5C10.5339 48.875 11.375 49.7161 11.375 50.75C11.375 51.7839 10.5339 52.625 9.5 52.625ZM13.25 60.25C12.2513 60.25 11.375 59.3154 11.375 58.25V56.0525C13.5574 55.2785 15.125 53.1944 15.125 50.75C15.125 48.3056 13.5574 46.2215 11.375 45.4475V37.3025C13.5574 36.5285 15.125 34.4444 15.125 32C15.125 29.5556 13.5574 27.4715 11.375 26.6975V18.5525C13.5574 17.7785 15.125 15.6944 15.125 13.25C15.125 10.8056 13.5574 8.7215 11.375 7.9475V5.625C11.375 4.59113 12.2161 3.75 13.25 3.75H54.625C55.6589 3.75 56.5 4.59113 56.5 5.625V38.8931C54.7943 38.0806 52.8869 37.625 50.875 37.625C43.6379 37.625 37.75 43.5129 37.75 50.75C37.75 54.4725 39.2791 57.8408 41.7357 60.25H13.25ZM50.875 60.25C45.7056 60.25 41.5 55.9884 41.5 50.75C41.5 45.5806 45.7056 41.375 50.875 41.375C56.0444 41.375 60.25 45.5806 60.25 50.75C60.25 55.9884 56.0444 60.25 50.875 60.25Z" fill="#335EEA"/>
<path d="M50.875 15.125H39.625C38.5895 15.125 37.75 15.9645 37.75 17C37.75 18.0355 38.5895 18.875 39.625 18.875H50.875C51.9105 18.875 52.75 18.0355 52.75 17C52.75 15.9645 51.9105 15.125 50.875 15.125Z" fill="#335EEA"/>
<path d="M50.875 30.125H39.625C38.5895 30.125 37.75 30.9645 37.75 32C37.75 33.0355 38.5895 33.875 39.625 33.875H50.875C51.9105 33.875 52.75 33.0355 52.75 32C52.75 30.9645 51.9105 30.125 50.875 30.125Z" fill="#335EEA"/>
<path d="M54.625 48.875H52.75V47C52.75 45.9645 51.9105 45.125 50.875 45.125C49.8395 45.125 49 45.9645 49 47V50.75C49 51.7855 49.8395 52.625 50.875 52.625H54.625C55.6605 52.625 56.5 51.7855 56.5 50.75C56.5 49.7145 55.6605 48.875 54.625 48.875Z" fill="#335EEA"/>
<path d="M33.3256 11.9242C32.5935 11.1919 31.4062 11.1919 30.6741 11.9243L24.4998 18.0984L21.5485 15.147C20.8163 14.4148 19.6291 14.4148 18.8968 15.147C18.1646 15.8793 18.1646 17.0664 18.8968 17.7987L23.1741 22.0759C23.5401 22.442 24.02 22.625 24.4998 22.625C24.9797 22.625 25.4596 22.442 25.8256 22.0758L33.3256 14.5758C34.0579 13.8435 34.0579 12.6564 33.3256 11.9242Z" fill="#335EEA"/>
<path d="M33.3256 26.9242C32.5935 26.1919 31.4062 26.1919 30.6741 26.9243L24.4998 33.0984L21.5485 30.147C20.8163 29.4148 19.6291 29.4148 18.8968 30.147C18.1646 30.8793 18.1646 32.0664 18.8968 32.7987L23.1741 37.0759C23.5401 37.442 24.02 37.625 24.4998 37.625C24.9797 37.625 25.4596 37.442 25.8256 37.0758L33.3256 29.5758C34.0579 28.8435 34.0579 27.6564 33.3256 26.9242Z" fill="#335EEA"/>
<path d="M33.3256 41.9242C32.5935 41.1919 31.4062 41.1919 30.6741 41.9243L24.4998 48.0984L21.5485 45.147C20.8163 44.4148 19.6291 44.4148 18.8968 45.147C18.1646 45.8793 18.1646 47.0664 18.8968 47.7987L23.1741 52.0759C23.5401 52.442 24.02 52.625 24.4998 52.625C24.9797 52.625 25.4596 52.442 25.8256 52.0758L33.3256 44.5758C34.0579 43.8435 34.0579 42.6564 33.3256 41.9242Z" fill="#335EEA"/>
</svg>
