<svg width="48" height="48" viewBox="0 0 48 48" fill="none" xmlns="http://www.w3.org/2000/svg">
<g clip-path="url(#clip0)">
<path d="M30 13C28.896 13 28 12.104 28 11V8H20V11C20 12.104 19.104 13 18 13C16.896 13 16 12.104 16 11V8C16 5.794 17.794 4 20 4H28C30.206 4 32 5.794 32 8V11C32 12.104 31.104 13 30 13Z" fill="#003CC5" fill-opacity="0.5"/>
<path d="M25.42 30.76C25.06 30.9 24.54 31 24 31C23.46 31 22.94 30.9 22.46 30.72L0 23.24V38.5C0 41.54 2.46 44 5.5 44H42.5C45.54 44 48 41.54 48 38.5V23.24L25.42 30.76Z" fill="#003CC5" fill-opacity="0.5"/>
<path d="M48 15.5V20.08L24.48 27.92C24.32 27.98 24.16 28 24 28C23.84 28 23.68 27.98 23.52 27.92L0 20.08V15.5C0 12.46 2.46 10 5.5 10H42.5C45.54 10 48 12.46 48 15.5Z" fill="#003CC5"/>
</g>
<defs>
<clipPath id="clip0">
<rect width="48" height="48" fill="white"/>
</clipPath>
</defs>
</svg>
